<?xml version="1.0" encoding="utf-8"?>
<!-- Generator: Adobe Illustrator 26.0.3, SVG Export Plug-In . SVG Version: 6.00 Build 0)  -->
<svg version="1.1" id="Layer_1" xmlns="http://www.w3.org/2000/svg" xmlns:xlink="http://www.w3.org/1999/xlink" x="0px" y="0px"
	 viewBox="0 0 771 771" style="enable-background:new 0 0 771 771;" xml:space="preserve">
<style type="text/css">
	.st0{fill:#FFFFFF;stroke:#231F20;stroke-width:3;stroke-linecap:round;stroke-miterlimit:10;}
	.st1{fill:#1750A1;}
	.st2{fill:#509D24;}
	.st3{fill:#555555;}
</style>
<circle class="st0" cx="385.5" cy="385.5" r="384"/>
<circle class="st0" cx="382.2" cy="388.5" r="289.6"/>
<g id="g1574_00000034812676156621470550000006875009517663098005_" transform="translate(0,-0.46281216)">
	<g id="g1562_00000160170334620359235760000017476423007730644883_" transform="translate(-0.06279514)">
		<path id="path1493_00000095319381292253309730000009026910302760198049_" class="st1" d="M139.2,350c0.5,0.2,25.7,25.8,25.7,25.8
			h183.6L218,244.9h-33.1l104,104.4l1.1,1.1L139.2,350z"/>
		<path id="path1493-1_00000054946608818957439110000013061268369795411377_" class="st1" d="M240.6,187.4c0.2,0.5,0,36.4,0,36.4
			l129.8,130.3v-185L347,145.5v147.6v1.6L240.6,187.4z"/>
		<path id="path1493-0_00000167365518664292944190000001088642228836570274_" class="st1" d="M424.6,144.8
			c-0.2,0.5-25.7,25.8-25.7,25.8l0,184.2L529.3,224v-33.3l-104,104.4l-1.1,1.1L424.6,144.8z"/>
		<path id="path1493-1-6_00000109014316078605832640000014838585016646384032_" class="st1" d="M586.2,245.2c-0.5,0.2-36.3,0-36.3,0
			L420.1,375.4l184.4,0l23.4-23.5H480.8l-1.6,0L586.2,245.2z"/>
	</g>
	<g id="g1556_00000005964267069220201090000015438691694089121166_" transform="translate(0.06279499)">
		<path id="path1493-7_00000022520360629511826740000010592133646844882309_" class="st2" d="M627.7,428
			c-0.5-0.2-25.7-25.8-25.7-25.8H418.5l130.4,130.8H582L478,428.7l-1.1-1.1L627.7,428z"/>
		<path id="path1493-1-8_00000054226389264761961740000012274463275688856462_" class="st2" d="M526.3,590.6c-0.2-0.5,0-36.4,0-36.4
			L396.5,423.9v185l23.4,23.5l0-147.6v-1.6L526.3,590.6z"/>
		<path id="path1493-0-3_00000054244785181560810840000003033529823618598531_" class="st2" d="M342.3,633.1
			c0.2-0.5,25.7-25.8,25.7-25.8l0-184.2L237.6,554v33.3l104-104.4l1.1-1.1L342.3,633.1z"/>
		<path id="path1493-1-6-3_00000134934140764867595070000002505444416567297957_" class="st2" d="M180.8,532.8
			c0.5-0.2,36.3,0,36.3,0l129.8-130.3l-184.4,0L139,426h147.1l1.6,0L180.8,532.8z"/>
	</g>
</g>
<g>
	<g>
		<path class="st3" d="M79.3,397.7l-57.3,1l-0.1-7.6l50.5-0.9l-0.5-28.2l6.8-0.1L79.3,397.7z"/>
		<path class="st3" d="M78.9,355.4l-52.4-31.9l1.5-8l60.5-12.7l-1.6,8.5l-18.3,3.4l-4.3,23.6l15.9,9.3L78.9,355.4z M58.7,334.9
			l3.5-19.1l-16.7,3c-5.1,0.9-9.2,1.5-12.4,1.9c3.5,1.4,6.9,3,10.2,5L58.7,334.9z"/>
		<path class="st3" d="M91.6,294.1l-53.2-21.2l2.8-7l26.4,10.5l-15.9-36.9l3.8-9.5l12.7,30.9l40.9-10.7l-3.7,9.3L71,267.6l5,12.1
			l18.4,7.3L91.6,294.1z"/>
		<path class="st3" d="M114.2,241.5l-48.1-31.1l22.5-34.8l5.7,3.7l-18.3,28.4l14.7,9.5l17.2-26.6l5.6,3.6l-17.2,26.6l16.4,10.6
			l19.1-29.5l5.7,3.7L114.2,241.5z"/>
		<path class="st3" d="M182.1,132.8l7-3.5c2.9,5.7,3.8,11.2,2.8,16.4c-1,5.2-3.7,9.7-8.2,13.6c-4.7,4-9.3,6.4-13.9,7
			c-4.6,0.6-9.2-0.2-13.8-2.5c-4.6-2.3-8.8-5.5-12.3-9.6c-3.9-4.5-6.4-9.2-7.6-14c-1.2-4.8-0.9-9.5,0.7-14c1.7-4.5,4.4-8.4,8.2-11.7
			c4.3-3.7,8.9-5.8,13.8-6.1c4.9-0.3,9.6,1,14.2,4l-4.5,6.2c-3.7-2.3-7.2-3.3-10.3-3.1c-3.2,0.2-6.2,1.6-9.1,4.1
			c-3.3,2.9-5.4,6.1-6.3,9.6c-0.9,3.5-0.6,7,0.8,10.5c1.4,3.5,3.4,6.6,5.8,9.5c3.2,3.7,6.5,6.4,10,8.3s6.9,2.4,10.3,1.8
			c3.4-0.6,6.5-2,9.1-4.3c3.2-2.8,5.1-6.1,5.8-9.8C185.3,141.2,184.4,137.2,182.1,132.8z"/>
		<path class="st3" d="M195.8,112.6c-4.6-8.3-6-16-4.2-23.2c1.8-7.2,6.3-12.7,13.3-16.7c4.6-2.6,9.4-3.8,14.3-3.7
			c4.9,0.1,9.5,1.6,13.6,4.5c4.1,2.9,7.6,6.8,10.4,11.8c2.8,5.1,4.3,10.2,4.5,15.3c0.2,5.1-1,9.8-3.6,13.9
			c-2.6,4.2-6.1,7.4-10.4,9.9c-4.7,2.6-9.5,3.8-14.5,3.6c-5-0.2-9.5-1.7-13.6-4.6C201.5,120.7,198.2,117,195.8,112.6z M202.7,108.9
			c3.4,6,7.6,9.9,12.8,11.5c5.2,1.7,10.2,1.1,15.1-1.6c5-2.8,8.1-6.8,9.4-12.1c1.3-5.3,0.1-11.2-3.5-17.6c-2.3-4.1-4.9-7.2-8-9.5
			c-3.1-2.3-6.4-3.5-10-3.7c-3.6-0.2-7,0.6-10.3,2.5c-4.7,2.6-7.8,6.5-9.4,11.6C197.1,95.1,198.5,101.4,202.7,108.9z"/>
		<path class="st3" d="M287.9,39.6l7.2-2.3l10,31.5c1.7,5.5,2.5,10,2.3,13.7c-0.2,3.6-1.6,7-4.2,10c-2.6,3.1-6.5,5.4-11.8,7.1
			c-5.1,1.6-9.6,2.1-13.4,1.4c-3.8-0.7-6.9-2.5-9.4-5.4c-2.5-2.9-4.6-7.2-6.4-13l-10-31.5l7.2-2.3l10,31.5c1.5,4.7,3.1,8.1,4.7,10.1
			c1.6,2,3.7,3.2,6.2,3.7c2.5,0.5,5.4,0.3,8.5-0.7c5.3-1.7,8.7-4.1,10.2-7.2c1.5-3.1,1.1-8.1-1-15L287.9,39.6z"/>
		<path class="st3" d="M328.1,88.4l-6.6-56.9l7.7-0.9l35.1,41.2l-5.2-44.7l7.2-0.8l6.6,56.9l-7.7,0.9l-35.1-41.2l5.2,44.7
			L328.1,88.4z"/>
		<path class="st3" d="M403.9,83.9l2.9-50.4L388,32.4l0.4-6.7l45.3,2.6l-0.4,6.7L414.4,34l-2.9,50.4L403.9,83.9z"/>
		<path class="st3" d="M457.4,91l5.5-23.6l-14-37.1l9,2.1l7.1,19.4c1.3,3.6,2.5,7.2,3.5,10.8c2.4-2.5,5.1-5.3,8.4-8.4l14.6-13.9
			l8.6,2l-29.7,27l-5.5,23.6L457.4,91z"/>
		<path class="st3" d="M488.7,99.5l2.6-7.6l7.6,2.6l-2.6,7.6c-1,2.8-2.2,4.9-3.8,6.2s-3.6,2.2-6.1,2.4l-0.9-3.5c1.6-0.1,3-0.7,4-1.7
			c1.1-1,2-2.6,2.9-4.8L488.7,99.5z"/>
		<path class="st3" d="M538.7,120.8l27.6-50.2l6.6,3.6l-27.6,50.2L538.7,120.8z"/>
		<path class="st3" d="M560.5,133.1l33.4-46.5l6.2,4.4l-29.5,41l22.9,16.5l-3.9,5.5L560.5,133.1z"/>
		<path class="st3" d="M599,162.3l40.3-40.7l5.4,5.3l-35.5,35.9l20.1,19.8l-4.8,4.8L599,162.3z"/>
		<path class="st3" d="M633.5,199l45-35.4l4.7,6l-45,35.4L633.5,199z"/>
		<path class="st3" d="M649,218.5l49.7-28.4l3.8,6.8l-24.2,48.4l39.1-22.3l3.6,6.3l-49.7,28.4l-3.9-6.8l24.2-48.4l-39.1,22.3
			L649,218.5z"/>
		<path class="st3" d="M703.9,261.7c9.1-2.8,16.9-2.6,23.6,0.7c6.6,3.3,11.2,8.8,13.6,16.5c1.6,5,1.8,10,0.6,14.8
			c-1.2,4.8-3.6,8.9-7.2,12.4c-3.7,3.5-8.2,6-13.7,7.7c-5.5,1.7-10.9,2.1-15.9,1.3s-9.4-3-12.9-6.4c-3.5-3.4-6-7.5-7.5-12.2
			c-1.6-5.1-1.8-10.1-0.5-15c1.2-4.8,3.7-8.9,7.3-12.4C694.9,265.7,699.1,263.2,703.9,261.7z M706.1,269.2
			c-6.6,2-11.2,5.4-13.9,10.1c-2.7,4.7-3.2,9.8-1.6,15.1c1.7,5.4,5,9.3,9.9,11.7c4.9,2.3,10.9,2.4,17.9,0.2c4.5-1.4,8.1-3.3,11-5.9
			c2.9-2.5,4.7-5.5,5.7-9c0.9-3.5,0.8-7-0.3-10.6c-1.6-5.1-4.7-9-9.4-11.6S714.3,266.7,706.1,269.2z"/>
		<path class="st3" d="M694.8,337.2l56.7-7.9l1.1,7.5l-56.7,7.9L694.8,337.2z"/>
		<path class="st3" d="M716.9,359.5l0.5,7.2c-2.9,0.3-5.2,1-7.1,2.2c-1.9,1.2-3.4,3.1-4.5,5.7s-1.8,5.5-1.8,8.8
			c0,2.9,0.3,5.4,1.2,7.7c0.8,2.2,2,3.9,3.5,5c1.5,1.1,3.1,1.7,4.9,1.7c1.8,0,3.4-0.5,4.7-1.5c1.4-1,2.5-2.7,3.5-5.1
			c0.6-1.5,1.6-4.9,3-10.1c1.4-5.2,2.6-8.9,3.8-11c1.5-2.7,3.3-4.7,5.4-6s4.5-1.9,7.2-1.9c2.9,0,5.6,0.9,8.1,2.6
			c2.5,1.7,4.4,4.1,5.6,7.3c1.2,3.2,1.8,6.7,1.8,10.5c-0.1,4.2-0.8,8-2.2,11.2s-3.5,5.7-6.2,7.4c-2.7,1.7-5.7,2.6-9.1,2.7l-0.4-7.3
			c3.6-0.3,6.4-1.6,8.3-3.8c1.9-2.2,2.9-5.5,2.9-9.9c0.1-4.6-0.7-7.9-2.4-10.1c-1.6-2.1-3.7-3.2-6-3.2c-2.1,0-3.8,0.7-5.1,2.1
			c-1.4,1.4-2.8,5.2-4.3,11.4c-1.5,6.1-2.8,10.3-3.9,12.6c-1.6,3.3-3.6,5.7-6,7.3c-2.4,1.5-5.1,2.3-8.2,2.2c-3-0.1-5.9-1-8.6-2.8
			s-4.7-4.3-6.2-7.6c-1.4-3.3-2.1-7-2.1-11.1c0.1-5.2,0.9-9.5,2.5-13c1.6-3.5,3.9-6.2,7-8.1C709.6,360.6,713.1,359.6,716.9,359.5z"
			/>
	</g>
</g>
<g>
	<path class="st3" d="M168.7,673.3c-8.9-6.9-12.7-18.9-2.4-32.2l3.5-4.5c10.3-13.3,22.9-12.6,31.8-5.7c8.9,6.9,12.7,18.9,2.4,32.2
		l-3.5,4.5C190.2,680.9,177.6,680.2,168.7,673.3z M199.6,633.6c-7.1-5.5-17.8-6.2-26.3,4.8l-4.4,5.7c-8.5,11-5.3,21.1,1.8,26.7
		c7.1,5.5,17.8,6.2,26.3-4.8l4.4-5.7C209.9,649.3,206.6,639.1,199.6,633.6z"/>
	<path class="st3" d="M87.6,441.8l6,36.3l-3.2,0.5l-2.7-16.3L41.2,470l-0.6-3.7l46.5-7.7l-2.7-16.3L87.6,441.8z"/>
	<path class="st3" d="M112.8,532.7L66,551.3l-1.4-3.5l24.6-9.8l-10.5-26.5l-24.6,9.8l-1.4-3.5l46.8-18.6l1.4,3.5l-19.2,7.6
		l10.5,26.5l19.2-7.6L112.8,532.7z"/>
	<path class="st3" d="M103.5,613.6l-21-31.2l41.8-28.2l20.4,30.2l-2.7,1.8l-18.3-27.1l-16.3,11l14.9,22.1l-2.7,1.8L104.7,572
		l-17.4,11.7l18.9,28.1L103.5,613.6z"/>
	<path class="st3" d="M222.5,703.5l-3.4-1.6l22-45.3l34.3,16.6L274,676l-30.9-15l-8.8,18.2l25.3,12.3l-1.4,2.9l-25.3-12.3
		L222.5,703.5z"/>
	<path class="st3" d="M274.9,728.3l-3.6-0.9l12.7-48.8l36.9,9.6l-0.8,3.2l-33.3-8.6l-5.1,19.6l27.3,7.1l-0.8,3.2l-27.3-7.1
		L274.9,728.3z"/>
	<path class="st3" d="M343.3,741.7l-3.7-0.4l5.4-50.1l3.7,0.4L343.3,741.7z"/>
	<path class="st3" d="M416.1,728.9c-1.2,11.5-9.1,15.7-19.1,16.1c-9.7,0.4-20.4-4.9-21.1-22.1l-0.3-7.7
		c-0.7-17.2,9.4-23.5,19.2-23.9c9.4-0.4,18.4,2.9,20.1,14.4l-3.5,1.8c-1.4-10.5-9-13.2-16.5-12.9c-7.5,0.3-16.1,5.5-15.5,19.7
		l0.4,9.2c0.6,14.2,9.6,18.5,17.1,18.2c7.9-0.3,14.9-3.7,15.6-14.2L416.1,728.9z"/>
	<path class="st3" d="M454.2,736.4l-3.7,0.7l-9.7-49.5l3.7-0.7L454.2,736.4z"/>
	<path class="st3" d="M511.3,706.7l-23.9,8.5l-0.3,13.4l-3.7,1.3l1.7-54.1l3.5-1.2l35.4,40.9l-3.9,1.4L511.3,706.7z M509,704
		l-20.6-24.2l-0.8,31.8L509,704z"/>
	<path class="st3" d="M578.3,682.7l1.7,2.8L551.6,702l-25.5-43.5l3.2-1.9l23.8,40.7L578.3,682.7z"/>
	<path class="st3" d="M647.4,615.7c4.5,4.1,7,13.1-3.2,24.2c-8.8,9.5-17.8,11.4-24.6,5l-0.3-0.3l1.6-3.6l0.8,0.7
		c6.3,5.8,13.8,2.8,20.2-4.1c6.9-7.4,7.8-14.6,3.1-19c-4.1-3.8-9.3-4.2-20.5,3.5c-12.4,8.5-18.5,8.9-23.6,4.2
		c-5.2-4.8-4.3-13.7,3.6-22.3c7.9-8.6,16.7-9.7,22.3-4.8l0.2,0.2l-1.6,3.6l-0.7-0.7c-5.2-4.8-12.2-2.3-17.8,3.8
		c-6,6.5-7.7,13.3-3.5,17.1c3.6,3.3,7.7,3.3,19.7-4.6C634.5,611.1,640.6,609.4,647.4,615.7z"/>
	<path class="st3" d="M696.2,568.1l-19,32.4L633.7,575l18.5-31.4l2.8,1.7l-16.6,28.2l16.9,9.9l13.5-23l2.8,1.7l-13.5,23l18.1,10.6
		l17.2-29.2L696.2,568.1z"/>
	<path class="st3" d="M709,513.9l-7.9,24.1l10.5,8.5l-1.2,3.7l-41.8-34.3l1.1-3.5l54-3l-1.3,3.9L709,513.9z M705.5,514.1l-31.8,1.6
		l24.7,20.1L705.5,514.1z"/>
	<path class="st3" d="M729.8,445.4l3.2,0.3l-3.4,32.6l-50.1-5.2l0.4-3.7l46.9,4.9L729.8,445.4z"/>
</g>
</svg>
