<?xml version="1.0" encoding="utf-8"?>
<!-- Generator: Adobe Illustrator 14.0.0, SVG Export Plug-In . SVG Version: 6.00 Build 43363)  -->
<!DOCTYPE svg PUBLIC "-//W3C//DTD SVG 1.1//EN" "http://www.w3.org/Graphics/SVG/1.1/DTD/svg11.dtd">
<svg version="1.1" id="Layer_1" xmlns="http://www.w3.org/2000/svg" xmlns:xlink="http://www.w3.org/1999/xlink" x="0px" y="0px"
	 width="500px" height="500px" viewBox="0 0 500 500" enable-background="new 0 0 500 500" xml:space="preserve">
<circle fill="#FFFF01" cx="250" cy="250" r="158.412"/>
<path d="M355.041,356.468c-0.926-3.514-2.73-7.307-5.498-8.896c-1.557-0.9-3.598-1.297-4.564-2.639
	c-0.953-1.314-1.535-4.104-1.23-6.505c0.301-2.418,1.813-4.483,2.938-6.889c0.991-2.104,2.238-5.074,1.313-7.82
	c-0.461-1.371-1.813-3.104-2.786-4.102c-0.729-0.742-2.593-2.644-4.334-2.479c-1.336,0.127-3.042,1.813-3.795,3.529
	c-0.246,0.252-0.604,0.049-0.629-0.121c1.129-1.49,3.063-4.242,4.188-6.656c0.385-0.813,0.883-1.793,0.933-2.557
	c0.13-2.072-1.438-4.6-2.242-6.037c-1.345-2.375-3.024-4.229-2.709-7.977c0.108-1.35,0.389-2.754,0.614-4.104
	c0.229-1.322,0.646-2.675,0.621-4.021c-0.037-2.271-1.313-4.135-2.168-6.039c-0.918-2.051-1.474-4.264-1.938-6.271
	c-0.396-1.729-0.956-3.517-1.503-5.316c-0.979-16.926-4.354-29.938-4.521-30.567l-0.922-3.504l-3.504,0.929
	c-0.104,0.028-6.519,1.713-14.238,3.063c-0.104-0.064-0.188-0.113-0.236-0.127c-1.611-0.438-3.305-2.185-3.102-4.336
	c0.18-1.876,3.521-2.48,5.494-2.786c2.404-0.371,4.432-0.593,6.354-0.929c4.381-0.769,7.281-2.361,10.219-4.258
	c1.467-0.948,2.891-1.917,4.486-2.786c4.604-2.498,11.711-2.914,12.93-8.826c0.868-4.214-0.771-8.262-2.166-11.146
	c-1.882-3.885-4.064-5.645-7.436-8.051c-4.088-2.924-7.324-5.954-10.445-10.218c-1.813-2.473-3.813-5.4-5.963-7.818
	c-3.258-3.671-3.434-3.29-7.834-6.876c0,0-0.071-0.041-0.194-0.127l10.021-27.063c0.666-1.758,1.33-3.468,1.563-5.176
	c0.474-3.417-0.405-6.549-1.396-9.937l-0.184,0.472c0.119-0.335,0.188-0.526,0.188-0.526c-2.947,1.938-5.646,3.752-7.512,6.657
	c-0.931,1.451-1.535,3.184-2.168,4.954l-9.521,25.854c-0.542-0.366-1.104-0.707-1.673-1.038l-0.012,0.032
	c-0.604-0.601-1.188-1.222-1.949-1.661c-0.102,0.014-0.146-0.019-0.168-0.084c-0.863-0.246-1.813-0.41-2.752-0.582
	c-0.101,0.013-0.146-0.02-0.166-0.085c-1.641-0.755-2.711-2.073-4.004-3.169c-1.459-0.935-2.53-2.252-4.008-3.17
	c0.094-0.521,0.539-0.684,0.834-1.001c0.271-0.341,0.578-0.646,0.918-0.918c0.537-0.657,1.217-1.179,1.75-1.835
	c1.646-2.474,2.842-5.394,2.674-9.676c-0.41-3.675-2.064-6.108-4.342-7.924c-0.203,0.013-0.257-0.132-0.412-0.167
	c-0.94-0.476-1.979-0.861-3.006-1.251c-0.529-0.192-1.063-0.379-1.418-0.752c-0.445-0.248-0.979-0.412-1.255-0.834
	c-0.839-1.576-0.245-4.588-0.665-6.589c-0.313-2.075-0.854-3.933-1.085-6.089c-0.737-2.375-1.807-4.426-2.168-7.174
	c-1.069-1.514-1.899-3.268-3.255-4.505c-2.493-1.372-4.529-3.196-7.089-4.504c-1.218-0.731-2.87-1.025-4.173-1.669
	c-1.313-0.604-2.594-1.244-4.172-1.585c-3.396-0.117-6.688,0.533-7.213,0.693c-2.438,0.739-5.111,1.24-7.051,2.478
	c-2.379,1.457-4.197,3.477-6.674,4.838c-1.673,1.635-2.906,3.709-3.836,6.088c-0.857,2.741-0.173,6.16,0.25,8.843
	c0.47,0.782,1.022,1.479,1.586,2.168c0.582,0.668,1.49,1.012,2,1.752c0.227,1.582,0.6,3.017,0.668,4.755
	c0.154,1.962-0.32,3.294-0.5,4.922c0.441,2.616,1.176,4.941,2.252,6.923c1.061,1.97,1.619,4.441,2.502,6.59
	c0.086,0.109,0.082,0.308,0.166,0.417c0.656,0.984,1.467,1.813,2.338,2.585c1.643,0.361,3.24,0.763,4.917,1.085
	c1.112-0.165,2.118-0.438,3.256-0.584c0.396,0.052,0.481,0.404,0.668,0.668c0.299,0.146,0.301,0.591,0.582,0.75
	c0.229,0.66,0.688,1.093,0.834,1.835c0.621,1.132,1.028,2.473,1.584,3.671c-1.063,1.406-3.088,1.86-4.756,2.668
	c-1.691,0.751-3.271,1.623-4.918,2.42c-1.66,0.313-3.146,0.801-4.753,1.167c-1.464,0.483-3.452,0.442-4.755,1.084
	c-3.287,0.386-6.279,1.067-9.867,1.153c-0.256-0.01-0.505-0.013-0.769-0.029c-2.049-0.138-3.996-0.392-6.038-0.31
	c-1.896,0.075-3.709,0.467-5.65,0.618c-4.646,0.364-9.008-0.504-12.928-1.548c-5.968-1.589-11.869-3.685-19.352-2.709
	c-2.068,0.27-4.533,1.174-6.426,1.857c-3.52,1.272-6.868,2.675-10.779,3.531c-0.062,0.009-0.13,0.026-0.202,0.049l-2.46,0.592v0.006
	c-1.115,0.15-2.126,0.661-3.391,0.611c-1.904-0.075-3.804-0.142-5.708-0.122c-2.072,0.022-6.927,1.481-6.927,1.481
	c-2.757,0.583-5.189,2.113-6.466,4.152c-0.971,1.551-1.89,2.96-2.759,4.555c-0.75,1.377-0.656,2.229-0.485,3.353
	c0.057,0.375,1.376,2.387,1.996,2.892c0.362,0.294,0.71,0.729,1.053,1.137v13.877h6.661v-13.119
	c1.543-0.285,2.324-2.188,2.689-3.056c0.365-0.866,0.797-1.674,1.496-2.268c0.696-0.591,3.792-3.276,3.821-3.301
	c0.626-0.391,1.146-0.671,1.429-0.729h0.004c0,0,1.362-0.236,2.435,0.084c0,0,1.835,2.901,2.084,3.414
	c0.196,0.405,0.465,0.784,1.015,0.935c0.37,0.101,0.779,0.134,1.196,0.141l-0.006,0.014c0.821,0.035,1.861-0.105,2.526-0.215v0.006
	c0.096-0.017,0.179-0.035,0.272-0.053c0.236-0.042,0.389-0.073,0.389-0.073v-0.003c0.146-0.029,0.305-0.059,0.442-0.086
	c3.015-0.611,5.993-1.891,9.211-0.852c1.386,0.447,2.787,0.792,4.104,1.315c5.252,2.091,10.193,4.601,16.798,5.109
	c3.424,0.265,7.071,0.239,10.063,0.93c5.652,1.301,10.654,3.729,16.254,5.572c1.311,0.431,2.729,0.874,4.182,1.315
	c1.313,0.401,3.043,0.718,4.024,1.395c1.095,0.755,1.911,2.722,2.632,4.181c1.629,3.291,3.209,5.562,6.116,7.508
	c1.284,0.86,3.142,1.775,3.792,3.02c0.678,1.292,0.625,3.242,0.853,5.264c0.176,1.559,0.392,3.172,0.232,4.489
	c-0.446,3.693-1.997,7.144-3.406,10.141c-1.441,3.064-3.582,5.463-6.038,7.432c-2.516,2.016-4.937,4.084-7.199,6.348
	c-4.514,4.514-10.439,7.597-16.565,10.445c-3.121,1.451-6.411,2.396-9.677,3.793c-6.418,2.742-10.521,7.33-14.01,12.935
	c-3.303,5.295-7.024,11.055-10.992,16.021c-4.013,5.021-8.408,9.666-12.541,14.479c-2.133,2.479-4.057,4.938-5.883,7.662
	c-1.762,2.623-3.44,5.381-5.109,8.354c-2.355,4.209-4.593,8.695-8.05,12.152c-0.932,0.938-2.889,2.719-2.942,3.795
	c-0.046,0.957,0.863,1.953,1.471,2.631c1.71,1.9,3.264,3.031,5.342,4.729c0.275,0.225,1.089,0.801,1.084,0.928
	c-0.005,0.133-1.346,1.102-1.857,1.473c-1.855,1.332-4.184,2.688-5.42,4.412c-0.885,1.24-2.006,5.021-0.773,7.199
	c0.855,1.512,3.064,2.842,4.954,3.793c3.878,1.949,7.866,3.869,12.772,4.567c1.224,0.173,2.465,0.462,3.715,0.611
	c3.873,0.484,7.875,0.896,11.381,1.623c5.889,1.23,10.73,3.611,16.643,5.031c1.166,0.283,2.393,0.652,3.56,0.774
	c3.589,0.378,5.11-2.688,8.438-2.641c0.27,0.013,0.604,0.091,0.852,0.156c1.35,0.375,2.668,1.117,3.947,1.701
	c1.298,0.594,2.605,1.164,3.871,1.703c2.619,1.115,5.336,2.354,8.359,2.789c3.717,0.521,8.094,0.307,12.23,0.307
	c3.893,0,7.733-0.84,11.69-0.926c1.305-0.029,2.642,0.273,3.945,0.307c1.403,0.033,2.797,0,4.185,0c2.545,0.002,5-0.521,7.435-1.004
	c5.979-1.188,12.051-1.776,19.271-1.776c1.331,0,2.556-0.134,3.87-0.313c2.586-0.35,5.063-1.004,7.508-0.926
	c2.521,0.076,5.038,0.604,7.742,0.615c7.895,0.043,14.313-2.729,21.056-4.265c2.25-0.512,4.46-1.188,6.658-1.698
	c2.292-0.535,4.558-1.146,6.813-1.625c4.684-1.015,9.281-1.854,13.774-3.021c2.093-0.539,4.157-1.258,5.964-2.396
	C356.751,362.431,355.627,358.692,355.041,356.468z"/>
<path fill="#FFFFFF" d="M325.407,242.394l-0.421-1.712l-1.709,0.434c-3.035,0.77-18.746,4.61-29.948,4.626h-0.244
	c-16.623,0-27.994-2.367-31.083-3.092l-1.705-0.4l-0.398,1.705c-0.875,3.737-3.681,17.313-3.072,35.145
	c0.636,18.612,4.41,35.438,11.221,50.012c6.561,14.023,15.973,26.044,27.975,35.727l1.248,1.006l1.111-1.153
	c19.504-20.257,31.588-52.607,31.536-84.429C329.896,262.073,326.46,246.679,325.407,242.394z"/>
<path fill="#DA0605" d="M327.089,307.393l-0.177-28.018h-0.008c-0.115-16.032-2.881-29.717-4.119-35.047
	c-4.896,1.194-19.01,4.398-29.456,4.413h-0.244c-15.215,0-26.167-1.958-30.537-2.896c-0.92,4.264-2.745,14.377-2.805,27.561h-0.011
	l0.203,31.336c1.883,8.681,4.586,16.828,8.109,24.367c6.561,14.023,15.973,26.044,27.975,35.727l1.248,1.006l1.111-1.153
	C312.307,350.225,322.445,329.593,327.089,307.393z"/>
<path fill="#FFFFFF" d="M264.107,248.202c5.164,0.987,15.44,2.54,28.978,2.54h0.244c9.432-0.014,21.569-2.514,27.946-3.998
	c1.182,5.484,3.059,15.854,3.529,28.051c-9.262,2.046-20.795,4.046-30.609,4.066h-0.438c-10.926,0-21.663-0.726-31.99-2.129
	C261.529,263.843,263.087,253.493,264.107,248.202z"/>
<path d="M321.275,246.744c1.182,5.484,3.059,15.854,3.529,28.051c-9.262,2.046-20.795,4.046-30.609,4.066h-0.438
	c-10.926,0-21.662-0.725-31.99-2.129c-0.238-12.891,1.318-23.239,2.34-28.531c5.164,0.987,15.44,2.54,28.978,2.54h0.244
	C302.761,250.729,314.898,248.228,321.275,246.744 M322.803,244.335l-1.979,0.461c-6.308,1.468-18.267,3.932-27.496,3.945h-0.241
	c-13.486,0-23.708-1.569-28.602-2.504l-1.961-0.375l-0.379,1.96c-0.992,5.141-2.621,15.738-2.377,28.947l0.032,1.713l1.698,0.23
	c10.479,1.426,21.333,2.146,32.261,2.146h0.438c8.32-0.018,18.763-1.4,31.041-4.112l1.632-0.36l-0.065-1.67
	c-0.482-12.521-2.445-23.165-3.572-28.396L322.803,244.335L322.803,244.335z"/>
<path fill="#FFFFFF" d="M348.395,354.698c-0.563-1.074-1.229-1.852-1.627-2.859c-0.896,0.355-1.447,1.171-2.09,1.775
	c-4.306,4.069-9.27,7.717-15.714,9.604c-1.903,0.563-3.599,0.486-4.83-0.688c-0.334-0.314-1.698-1.739-2.139-1.71
	c-0.401,0.027-1.038,1.337-1.479,1.854c-1.814,2.151-3.617,3.843-7.347,4.021c0,0-7.978,0-9.28,0c-1.222,0-2.203-0.479-2.964-0.922
	c-0.379,0.401-0.76,0.814-1.149,1.215l-2.276,2.335l-2.563-2.034c-12.574-10.012-22.41-22.484-29.228-37.08
	c-6.96-14.883-10.815-32.048-11.463-51.021c-0.706-20.646,3.166-35.962,3.329-36.604l0.906-3.523l3.521,0.929
	c0.099,0.026,9.063,2.327,23.406,2.99c2.743-0.955,4.741-2.679,6.78-4.314c-3.115,0.634-5.422,0.817-7.144,0.781h-2.101v1.773
	h-3.383c-0.867-2.108-2.021-4.072-2.318-6.58c-0.539-4.514,2.326-7.76,3.563-10.759c-4.064-1.576-11.561-1.988-12.229-7.122
	c-0.104-0.832,0.008-1.974,0.469-2.787c0.834-1.483,2.627-1.755,3.641-1.625c2.322,0.3,4.445,2.551,7.045,3.019
	c0.803,0.144,1.918,0.188,2.994,0.24c0.361-0.878,0.896-2.149,1.547-3.664c0.373-0.867,1.096-1.244,1.847-1.38l5.182-13.842
	c0,0-1.946-2.959-2.354-3.726c-1.037-1.951-2.438-4.232-2.092-7.045c0.234-1.895,1.375-3.377,2.014-5.119
	c0.639-1.756,2.797-6.681,3.369-6.957c0.238-0.355,1.547,0.142,1.272,0.736c-0.376,1.111-0.903,2.259-1.396,3.445
	c-0.528,1.279-1.354,2.932-1.551,4.334c-0.369,2.617,0.604,4.333,1.396,5.884c0.56,1.084,0.903,2.026,1.726,2.87l7.414-20.21
	c-0.027-0.144-0.121-0.31-0.233-0.479c-0.685-0.642-1.345-1.304-1.979-1.996c-1.792-0.527-3.508-1.538-5.84-1.251
	c-0.537-0.297-0.722-0.951-1.25-1.251c-1.561-0.7-2.729-1.78-4.174-2.586c-0.27,1.471,0.229,3.214-0.332,4.421
	c-0.598,1.244-1.371,2.299-2.087,3.42c-0.563,1.273-1.456,2.214-2.257,3.253c-1.922,1.748-3.902,3.433-6.422,4.588
	c-0.808,0.253-1.967,0.146-3.004,0.167c-0.584-0.056-0.557,0.501-1.084,0.5c-1.457,0.043-3.123-0.122-4.338,0.167
	c-1.057,0.25-1.945,0.668-3.004,0.918c-2.316,0.043-4.285,0.072-6.59,0c-1.902-0.458-3.537-1.191-4.923-2.169
	c-0.731-0.934-1.351-1.988-1.75-3.254c0.088-1.579,0.583-2.753,0.499-4.504c-1.223,0.254-2.241,0.706-3.169,1.251
	c-0.494-0.117-0.861-0.36-1.335-0.5c-1.31,0.303-2.609,0.616-4.254,0.584c-0.844,0.353-1.559,0.832-2.419,1.168
	c-0.834,0.361-1.982,0.408-2.753,0.834c-0.219,0.079-2.249,0.604-3.108,0.668c-2.277,0.169-4.463-0.332-6.58-0.542
	c-2.18-0.217-4.22-0.388-6.579-0.154c-4.616,0.455-9.108,0.276-13.082-0.466c-4.007-0.748-7.392-2.071-11.456-2.863
	c-1.98-0.386-4.271-0.452-6.58-0.62c-4.099-0.298-8.855-0.833-10.527,1.857c-1.598,2.571-0.969,6.984-3.174,9.057
	c-0.31-0.028-0.888-0.173-1.316-0.31c-0.939-1.744-1.033-4.332-2.244-5.805c-1.065-0.473-2.717-0.414-4.104-0.387
	c0.094,3.24-0.106,6.19-0.465,8.979c2.074-0.162,3.671-0.493,5.419-0.852c0.677-0.14,1.437-0.209,2.013-0.465
	c1.135-0.503,2.075-1.617,3.096-2.399c1.114-0.852,2.153-1.588,3.563-1.857c-0.304,1.295-0.967,2.233-1.239,3.56
	c1.712,0.604,3.247,1.794,5.264,1.781c1.885-0.011,3.184-1.363,4.18-2.323c0.809-0.778,1.741-2.434,3.173-1.547
	c-0.236,1.207-1.018,1.87-1.236,3.096c3.439,1.207,6.8,1.59,9.984,3.328c2.822,1.542,5.382,4.259,9.213,3.948
	c3.856-0.313,6.913-1.746,10.759-1.936c-0.71,0.721-1.52,1.386-2.321,2.014c-0.8,0.624-1.758,1.157-2.246,2.09
	c1.408,0.477,3.365,0.813,4.877,0.929c7.231-0.577,11.349-3.652,14.475-8.283c0.437-0.644,5.141-7.717,5.667-8.413
	c0.613-0.61,1.04-1.408,1.753-1.919c0.617-0.061,0.977,0.137,1.583,0.084c0.343-0.215,0.224-0.889,0.501-1.168
	c0.641,0.056,1.501-0.11,2.003,0.084c-0.354,3.594-3.122,11.102-3.122,11.102c-2.264,5.293-5.216,9.99-7.299,15.402
	c0.104,0.731-0.3,1.549-0.234,2.167c0.631,5.743,3.522,10.954,8.902,11.689c2.514-0.472,4.961-0.896,6.892-1.857
	c-0.457-1.353-1.367-2.917-1.938-4.412c0.354-0.423,0.586-0.963,1.084-1.239c1.992,2.221,3.553,5.046,6.188,6.657
	c1.271,0.777,2.818,0.939,4.414,1.548c0.008,0.451,0.247,1.015,0.153,1.316c-2.083-0.338-4.334-1.097-6.351-1.238
	c-1.715-0.12-2.674,0.539-3.943,1.238c-2.414,1.329-4.359,2.367-4.49,5.729c1.973-0.319,4.242-0.503,6.188-0.696
	c1.074-0.108,1.904,0.074,2.938,0.154c2.911,0.224,5.899,0.753,8.521,1.394c-0.889,0.411-1.737,1.018-2.783,1.161
	c-1.924,0.262-3.784-0.748-5.965-0.929c-2.653-0.222-5.06,0.207-7.658,0.31c0.265,3.519-0.563,6.74-1.858,9.289
	c-2.238,4.413-4.497,8.47-7.663,11.688c-1.061,1.078-2.103,2.228-3.097,3.328c-4.937,5.465-10.488,11.469-17.185,15.021
	c-5.443,2.881-13.583,3.967-17.881,7.977c-2.121,1.976-3.879,4.65-5.883,7.046c-1.98,2.354-3.978,4.644-5.574,7.271
	c-1.633,2.688-3.265,5.235-5.341,7.586c-4.078,4.604-7.562,9.685-11.767,14.086c-6.34,6.646-11.441,14.46-16.488,22.22
	c-1.267,1.947-2.549,4.074-3.561,6.115c-0.344,0.688-0.787,1.396-0.93,2.166c4.358-1.367,7.683-3.334,10.528-6.115
	c2.815-2.75,4.872-6.292,8.283-8.438c-0.143,1.273-0.406,2.436-0.62,3.641c-1.62,3.752-4.397,6.08-7.586,8.826
	c-1.361,1.172-3.016,2.354-4.799,3.401c-1.587,0.932-4.272,1.766-4.954,3.324c-0.403,0.921,0.167,2.438,0.696,3.179
	c1.246,1.747,3.76,2.668,6.193,3.641c2.154,0.861,4.76,2.398,7.74,2.09c1.151-0.117,2.543-0.576,3.716-1.008
	c3.467-1.27,6.718-3.199,9.599-4.798c4.286-2.38,8.408-4.303,12.308-6.896c3.928-2.605,7.406-5.584,10.761-8.438
	c3.523-3.002,5.15-7.658,9.289-9.91c-1.088,4.358-3.251,7.817-5.42,11.381c-2.093,3.447-3.8,7.348-6.734,10.063
	c-2.821,2.604-5.895,5.107-8.979,7.813c-2.132,1.867-4.528,3.813-6.503,6.039c-0.999,1.129-2.342,2.236-1.315,3.715
	c1.042,1.498,4.463,2.543,6.657,2.709c3.081,0.236,5.043-0.735,7.741-1.082c3.434-0.434,7.146-0.237,10.373,0.154
	c1.718,0.211,3.42,0.676,5.031,0.463c3.58-0.467,4.476-4.176,5.65-6.887c0.793-1.832,1.549-3.635,2.477-5.271
	c3.815-6.688,9.94-10.646,14.554-16.4c2.371-2.961,3.835-6.565,4.18-11.313c0.444-0.104,1.34-0.139,1.78,0
	c-0.516,4.822-1.858,8.521-4.257,11.611c-4.6,5.932-11.342,10.121-14.94,16.877c-0.92,1.723-1.723,3.615-2.477,5.494
	c-0.739,1.842-1.323,3.851-2.4,5.576c-1.681,2.682-5.834,2.24-10.217,2.24c-2.7,0-5.115,0.364-7.277,0.932
	c-4.383,1.135-9.157,2.807-13.625,0.926c-1.935-0.806-3.625-1.943-5.418-2.783c-3.983-1.861-8.406-2.269-13.547-2.861
	c-2.508-0.285-5.037-0.469-6.966-1.313c-1.346-0.589-2.114-2.562-2.941-4.027c-0.553-0.973-1.81-3.141-3.097-3.25
	c-0.855-0.066-2.315,0.809-3.097,1.24c-2.926,1.623-5.194,3.757-7.044,6.193c2.235,3.021,4.955,5.262,9.057,6.5
	c1.979,0.594,4.211,0.877,6.502,1.313c2.258,0.437,4.654,0.771,6.967,0.854c2.872,0.105,5.165,0.014,7.276,0.465
	c2.137,0.459,3.825,1.258,5.574,2.246c3.548,2,7.14,3.813,11.843,3.793c4.221-0.021,7.401-2.104,10.683-3.25
	c1.205-0.418,2.712-0.983,3.871-0.854c2.057,0.234,1.899,2.891,2.322,4.877c2.867,0.854,6.366,0.72,9.753,1.084
	c3.284,0.361,5.191,2.47,7.896,3.021c1.309,0.27,2.868,0.243,4.413,0.309c1.509,0.07,3.158,0.078,4.645,0.076
	c6.345,0,12.71,0.428,17.805-0.926c1.884-0.503,3.701-1.123,5.651-1.396c1.462-0.209,3.081,0.021,4.877,0
	c3.256-0.024,6.013-0.396,8.816-1.008c3.463-0.75,6.612-2.042,10.146-2.938c3.564-0.908,7.837-0.978,12-1.084
	c4.141-0.115,8.313,0.963,12.463,0.541c1.792-0.188,3.669-0.653,5.495-1.01c5.412-1.048,10.813-2.359,16.021-3.718
	c1.813-0.475,3.418-0.914,4.877-1.629c2.938-1.438,5.172-3.385,8.52-4.643c1.295-0.495,4.244-1.295,4.563-2.021
	C349.764,357.019,348.761,355.407,348.395,354.698z"/>
<path fill="#FFFFFF" d="M164.33,183.709c-0.172-0.137-0.396-0.41-0.645-0.721c-0.896-1.183-1.354-1.523-1.545-1.622
	c-0.002-0.012-0.025-0.026-0.093-0.041c-0.014-0.003-0.021-0.004-0.021-0.004c-0.221-0.044-0.847-0.093-2.534-0.1c0,0,0,0,0-0.001
	c-0.017,0-0.034,0.001-0.051,0c-0.12,0-0.234-0.001-0.366-0.001l-0.008,0.006c-3.191,0.097-7.026,3.378-8.38,4.732
	c-1.046,1.046-1.121,4.749-3.932,4.354c-1.33-0.187-2.464-1.159-3.339-2.316c-0.526-0.527-0.948-1.168-1.091-1.666
	c-0.17-0.706-0.186-1.315,0-2.066c0.79-1.854,1.852-4.575,3.633-5.639c2.128-1.272,6.988-2.168,6.988-2.168
	c1.391-0.401,2.379-0.558,3.463-0.443c0,0,5.461,0.422,6.063,0.478c1.566,0.143,2.463,0.411,3.047,0.482
	C165.459,177.553,165.613,184.733,164.33,183.709z"/>
<path fill="#FFFFFF" d="M256.165,167.86c0.54-0.434,1.069-0.875,1.584-1.334c0.569-0.266,1.179-0.937,1.669-1.001
	c-0.014,2.017,0.051,4.11-0.083,6.006c-0.358,1.029-1.056,2.135-0.667,3.42c0.229,0.169,0.407-0.271,0.667-0.334
	c0.114-0.246,0.388-0.338,0.5-0.583c0.46-0.291,0.69-0.813,1.085-1.169c0.081-0.363,0.288-0.601,0.416-0.918
	c0.109-0.196,0.037-0.575,0.167-0.75c0.003-2.145-0.69-3.59-0.583-5.84c-0.467-4.121-2.318-6.855-3.92-9.842
	c0.708-1.487,2.162-2.229,3.503-3.087c1.427-0.769,2.793-1.6,4.337-2.252c-0.143-0.638-0.158-1.399-0.249-2.085
	c-2.166,0.642-3.478,2.139-5.339,3.086c-1.865,0.917-3.189,2.373-5.257,3.087c-3.276,0.601-6.007-0.619-7.673-2.169
	c0.012-0.539-0.143-0.915-0.167-1.418c-0.546-2.15-1.461-3.934-2.336-5.756c-1.048-1.648-1.819-3.574-2.001-6.089
	c0.047-1.648,0.672-2.72,1.001-4.087c0.954,0.13,1.644,0.524,2.585,0.667c-0.449,0.887-0.996,2.562,0.084,3.17
	c1.068-0.125,1.293-1.099,1.502-2.086c0.336-0.83,0.662-1.673,0.833-2.669c0.011-0.149-0.101-0.177-0.083-0.333
	c-0.334-1.475-1.725-1.89-2.503-2.92c0.017-0.601-0.183-0.984-0.166-1.585c-0.306-0.529-0.954-0.714-1.335-1.168
	c-0.511-0.295-0.95-0.662-1.418-1.001c0.191-0.56,0.574-0.928,0.918-1.335c5.37,0.589,7.119-2.445,11.511-2.836
	c0.733-0.049,1.047,0.631,1.418,1.002c0.388,0.389,0.839,0.717,1.166,1.167c0.099-0.014,0.151,0.019,0.168,0.084
	c1.901,1.019,3.823,2.016,5.172,3.586c-0.048,2.274-0.28,4.789,0.5,6.423c0.82,0.627,1.865,1.296,2.921,1.752
	c0.409,0.178,0.789,0.218,1.167,0.418c0.614,0.322,1.129,0.791,1.501,1.334c-0.055,1.363-0.65,2.185-1.584,2.669
	c0.514,0.934,1.028,1.863,1.418,2.919c0.111,1.504-0.46,2.321-0.501,3.671c0.669,3.668,2.132,6.545,4.089,8.925
	c0.7,0.577,1.49,1.069,2.418,1.419c0.555,0.028,1.036,0.129,1.668,0.083c0.459,0.042,0.605,0.396,1.002,0.501
	c0.752,0.026,1.627-0.071,2.252,0.083c0.363-0.016-0.08,0.281-0.168,0.333c-0.338,0.467-0.826,0.784-1.166,1.251
	c0.508,0.881,1.063,1.719,1.75,2.42c1.194,1.085,3.174,1.387,4.924,1.918c0.266,0.77,0.642,1.422,0.666,2.419
	c-1.146,3.023-3.146,5.19-4.922,7.591c-1.664,0.978-3.146,2.129-4.838,3.086c-2.279,0-4.561,0-6.839,0
	c-1.764,0.435-2.993,1.399-5.007,1.585c-1.378,0.04-2.925-0.089-4.17,0.084c-0.639-0.42-1.34-0.774-2.003-1.168
	c-0.476-0.059-0.69,0.141-1.166,0.083c-0.825-0.482-1.573-1.042-2.253-1.668C254.361,173.12,255.705,170.932,256.165,167.86z"/>
<g>
	<path d="M63.291,210.025c-1.772-0.478-3.353-1.256-4.741-2.334c-1.388-1.078-2.516-2.361-3.382-3.851
		c-0.866-1.49-1.429-3.126-1.688-4.909c-0.26-1.783-0.139-3.605,0.363-5.466c0.595-2.211,1.786-4.189,3.571-5.939l4.398,1.186
		c-2.365,1.64-3.864,3.63-4.495,5.972c-0.342,1.27-0.416,2.523-0.221,3.761c0.194,1.238,0.604,2.375,1.229,3.412
		c0.624,1.036,1.442,1.943,2.454,2.721c1.011,0.777,2.173,1.342,3.486,1.696c1.27,0.343,2.531,0.431,3.785,0.263
		c1.254-0.166,2.412-0.542,3.472-1.125c1.061-0.582,1.983-1.367,2.765-2.354c0.782-0.986,1.344-2.115,1.686-3.384
		c0.171-0.636,0.281-1.238,0.33-1.813c0.049-0.573,0.035-1.153-0.042-1.737c-0.077-0.584-0.227-1.188-0.445-1.81
		c-0.22-0.623-0.511-1.312-0.87-2.066l4.497,1.212c0.654,2.453,0.663,4.861,0.025,7.226c-0.482,1.795-1.27,3.385-2.358,4.77
		c-1.089,1.386-2.361,2.492-3.816,3.32c-1.457,0.829-3.044,1.363-4.764,1.604C66.81,210.621,65.064,210.502,63.291,210.025z"/>
	<path d="M71.732,180.343c-1.64-0.773-3.03-1.825-4.17-3.153c-1.14-1.327-1.987-2.8-2.54-4.414c-0.555-1.614-0.8-3.311-0.739-5.086
		c0.063-1.775,0.484-3.493,1.269-5.153c0.773-1.64,1.817-3.04,3.129-4.2c1.313-1.16,2.771-2.031,4.375-2.616
		c1.604-0.583,3.291-0.853,5.063-0.806c1.77,0.046,3.496,0.467,5.176,1.26c1.66,0.783,3.065,1.843,4.216,3.175
		c1.151,1.332,2.005,2.813,2.564,4.443c0.56,1.631,0.8,3.337,0.724,5.117c-0.076,1.781-0.507,3.502-1.29,5.162
		c-0.755,1.599-1.781,2.976-3.078,4.131c-1.297,1.155-2.743,2.026-4.337,2.614c-1.594,0.589-3.283,0.863-5.068,0.821
		C75.238,181.598,73.475,181.166,71.732,180.343z M73.418,176.853c1.291,0.609,2.586,0.934,3.885,0.969
		c1.299,0.038,2.523-0.155,3.675-0.576s2.185-1.043,3.099-1.865c0.915-0.821,1.633-1.786,2.156-2.893
		c0.57-1.209,0.88-2.447,0.928-3.717c0.048-1.268-0.132-2.48-0.539-3.638c-0.406-1.156-1.036-2.212-1.889-3.166
		c-0.853-0.954-1.895-1.722-3.124-2.303c-1.25-0.591-2.515-0.911-3.793-0.964c-1.279-0.052-2.492,0.127-3.639,0.538
		c-1.146,0.412-2.187,1.035-3.121,1.873c-0.934,0.838-1.683,1.851-2.243,3.039c-0.552,1.168-0.849,2.382-0.892,3.64
		c-0.043,1.259,0.142,2.461,0.553,3.607c0.411,1.147,1.036,2.2,1.874,3.159C71.185,175.516,72.209,176.281,73.418,176.853z"/>
	<path d="M79.561,138.071l2.274-3.138l12.992,9.422c0.954,0.691,1.853,1.162,2.695,1.408c0.843,0.248,1.615,0.311,2.318,0.19
		c0.704-0.119,1.347-0.388,1.929-0.806c0.583-0.417,1.101-0.938,1.553-1.563c0.452-0.623,0.787-1.277,1.003-1.961
		c0.216-0.683,0.266-1.382,0.153-2.094c-0.114-0.712-0.42-1.438-0.92-2.179c-0.499-0.739-1.244-1.469-2.235-2.188l-12.881-9.342
		l2.256-3.11l13.349,9.681c1.248,0.905,2.208,1.917,2.882,3.034c0.673,1.119,1.087,2.267,1.241,3.442
		c0.155,1.176,0.066,2.352-0.267,3.524c-0.332,1.172-0.877,2.281-1.636,3.327c-0.759,1.046-1.644,1.909-2.655,2.59
		c-1.011,0.681-2.1,1.13-3.266,1.348c-1.167,0.219-2.386,0.182-3.658-0.111c-1.271-0.292-2.531-0.891-3.779-1.795L79.561,138.071z"
		/>
	<path d="M114.695,97.569l2.804-2.678l18.782,19.673l-0.073,0.07l-26.928-1.271l12.396,12.983l-2.803,2.677l-18.901-19.795
		l0.074-0.071l26.951,1.297L114.695,97.569z"/>
	<path d="M130.11,85.145l12.987-8.716l2.027,3.021l-4.884,3.277l12.259,18.266l-3.19,2.142L137.05,84.868l-4.912,3.297
		L130.11,85.145z"/>
	<path d="M155.44,69.465l9.915,6.884l0.652-12.054l4.001-1.956l-1.181,16.777l4.87,9.956l-3.45,1.688l-4.871-9.957l-13.907-9.396
		L155.44,69.465z"/>
	<path d="M214.203,61.823c-0.214-1.802-0.061-3.537,0.459-5.208c0.521-1.671,1.318-3.17,2.393-4.496
		c1.075-1.326,2.382-2.434,3.919-3.325c1.538-0.891,3.219-1.445,5.041-1.661c1.801-0.214,3.541-0.073,5.221,0.424
		c1.68,0.496,3.192,1.269,4.539,2.317c1.346,1.052,2.469,2.339,3.369,3.863c0.901,1.525,1.461,3.21,1.681,5.057
		c0.217,1.822,0.065,3.575-0.453,5.257c-0.519,1.684-1.321,3.193-2.406,4.533c-1.085,1.339-2.402,2.447-3.952,3.328
		c-1.551,0.881-3.237,1.43-5.06,1.647c-1.756,0.208-3.467,0.069-5.134-0.418c-1.668-0.487-3.174-1.248-4.519-2.286
		c-1.345-1.039-2.474-2.326-3.387-3.86C215.001,65.461,214.431,63.736,214.203,61.823z M218.056,61.398
		c0.17,1.418,0.582,2.688,1.241,3.807c0.657,1.121,1.472,2.057,2.439,2.809c0.968,0.754,2.043,1.298,3.225,1.637
		c1.182,0.339,2.381,0.437,3.596,0.291c1.328-0.158,2.542-0.553,3.643-1.186c1.1-0.633,2.033-1.428,2.798-2.388
		c0.765-0.958,1.325-2.052,1.681-3.281s0.454-2.519,0.293-3.869c-0.163-1.373-0.562-2.616-1.196-3.728
		c-0.634-1.112-1.43-2.044-2.387-2.798c-0.958-0.752-2.038-1.304-3.244-1.651c-1.205-0.347-2.461-0.442-3.767-0.288
		c-1.282,0.153-2.469,0.546-3.558,1.177c-1.089,0.632-2.01,1.426-2.764,2.383c-0.754,0.957-1.315,2.046-1.684,3.265
		C218.004,58.798,217.898,60.07,218.056,61.398z"/>
	<path d="M266.842,46.786l-0.18,3.634l-8.932-0.44l-0.313,6.146l8.628,0.425l-0.183,3.634l-8.625-0.426l-0.604,12.19l-3.871-0.19
		l1.271-25.605L266.842,46.786z"/>
	<path d="M298.727,72.429l3.857-0.327c0.049,1.469,0.38,2.659,0.991,3.57c0.61,0.912,1.487,1.553,2.631,1.922
		c1.144,0.369,2.142,0.322,2.993-0.142c0.852-0.462,1.443-1.212,1.779-2.248c0.168-0.518,0.256-1.012,0.266-1.486
		c0.01-0.473-0.096-0.959-0.314-1.459c-0.221-0.499-0.574-1.043-1.063-1.629c-0.49-0.588-1.141-1.249-1.949-1.986
		c-0.883-0.81-1.631-1.575-2.242-2.297c-0.611-0.722-1.086-1.435-1.418-2.137c-0.333-0.703-0.514-1.417-0.542-2.141
		s0.093-1.506,0.364-2.347c0.286-0.885,0.725-1.654,1.316-2.31c0.594-0.652,1.291-1.159,2.1-1.518
		c0.807-0.359,1.689-0.569,2.648-0.629c0.961-0.059,1.938,0.075,2.961,0.402c1.662,0.537,2.951,1.388,3.875,2.556
		c0.92,1.167,1.506,2.505,1.758,4.015l-3.682,0.777c-0.226-1.023-0.563-1.848-1.021-2.475c-0.467-0.626-1.151-1.086-2.057-1.378
		c-0.498-0.161-0.978-0.229-1.416-0.207c-0.449,0.021-0.859,0.115-1.234,0.279c-0.375,0.165-0.696,0.39-0.967,0.671
		c-0.271,0.283-0.467,0.617-0.594,1.006c-0.117,0.367-0.162,0.728-0.142,1.082c0.028,0.354,0.168,0.751,0.425,1.189
		c0.254,0.438,0.625,0.922,1.116,1.452c0.496,0.529,1.146,1.162,1.959,1.899c0.979,0.887,1.771,1.727,2.367,2.517
		c0.604,0.789,1.045,1.575,1.328,2.358c0.278,0.782,0.397,1.583,0.362,2.404c-0.039,0.821-0.215,1.706-0.521,2.655
		c-0.342,1.058-0.841,1.956-1.495,2.696c-0.656,0.742-1.416,1.307-2.279,1.694c-0.855,0.389-1.787,0.601-2.771,0.639
		s-2-0.109-3.035-0.444c-1.063-0.341-1.979-0.8-2.771-1.377c-0.789-0.576-1.455-1.243-1.996-2.002
		c-0.539-0.758-0.938-1.585-1.197-2.479C298.857,74.306,298.729,73.382,298.727,72.429z"/>
	<path d="M331.174,62.859l14.104,6.758l-1.563,3.28l-5.313-2.541l-9.506,19.84l-3.463-1.661l9.504-19.839l-5.336-2.556
		L331.174,62.859z"/>
	<path d="M338.98,93.455c0.332-0.566,0.801-0.93,1.397-1.089c0.604-0.158,1.188-0.071,1.767,0.262c0.563,0.332,0.93,0.8,1.088,1.404
		c0.158,0.606,0.07,1.192-0.262,1.758c-0.332,0.568-0.808,0.931-1.404,1.089c-0.604,0.158-1.191,0.071-1.758-0.261
		c-0.568-0.332-0.938-0.8-1.09-1.405C338.563,94.608,338.648,94.022,338.98,93.455z"/>
	<path d="M363.671,96.251c1.171-1.415,2.534-2.53,4.091-3.345c1.559-0.815,3.193-1.309,4.907-1.479
		c1.715-0.171,3.438-0.004,5.168,0.501c1.729,0.504,3.337,1.371,4.822,2.599c1.763,1.46,3.069,3.364,3.921,5.716l-2.905,3.51
		c-0.509-2.833-1.698-5.023-3.565-6.568c-1.015-0.839-2.123-1.426-3.33-1.762c-1.199-0.338-2.404-0.437-3.606-0.3
		c-1.2,0.139-2.366,0.507-3.493,1.104c-1.129,0.598-2.121,1.421-2.982,2.468c-0.842,1.012-1.442,2.124-1.813,3.334
		c-0.368,1.211-0.508,2.42-0.417,3.626c0.09,1.207,0.422,2.371,0.993,3.492s1.364,2.102,2.38,2.939
		c0.506,0.418,1.01,0.769,1.512,1.052c0.502,0.282,1.035,0.509,1.604,0.683c0.563,0.172,1.175,0.287,1.829,0.346
		c0.654,0.058,1.4,0.08,2.236,0.065l-2.971,3.589c-2.504-0.423-4.695-1.415-6.584-2.976c-1.436-1.186-2.557-2.561-3.359-4.126
		c-0.809-1.565-1.285-3.183-1.438-4.851c-0.147-1.668,0.021-3.334,0.521-5C361.668,99.205,362.501,97.665,363.671,96.251z"/>
	<path d="M378.755,126.739l18.983-17.229l2.604,2.869l-16.29,14.784l5.073,5.59l-2.693,2.444L378.755,126.739z"/>
	<path d="M423.365,139.846l0.055,0.086l-16.452,24.867l-2.283-3.586l3.787-5.636l-5.896-9.264l-6.768,0.962l-2.229-3.499
		L423.365,139.846z M410.7,152.304l2.239-3.319c0.52-0.788,1.04-1.563,1.563-2.326c0.523-0.763,1.056-1.519,1.6-2.268
		c-0.934,0.137-1.876,0.273-2.815,0.407c-0.949,0.134-1.896,0.27-2.823,0.408l-3.917,0.559L410.7,152.304z"/>
	<path d="M410.921,173.495l23.266-10.767l1.637,3.518l-23.271,10.766L410.921,173.495z"/>
	<path d="M444.368,188.604c0.429,1.409,0.676,2.732,0.744,3.968c0.063,1.234-0.068,2.353-0.402,3.354
		c-0.336,1.001-0.885,1.867-1.646,2.597c-0.771,0.729-1.771,1.283-3.029,1.665c-1.605,0.488-3.146,0.464-4.624-0.069
		c-1.479-0.536-2.796-1.585-3.959-3.151l-8.105,10.635l-1.373-4.521l7.958-9.95l-0.229-0.781l-10.062,3.053l-1.127-3.708l24.53-7.45
		L444.368,188.604z M432.914,191.372l0.357,1.172c0.521,1.734,1.261,2.944,2.194,3.63c0.942,0.686,2.075,0.827,3.398,0.426
		c2.516-0.765,3.257-2.85,2.223-6.255l-0.396-1.333L432.914,191.372z"/>
</g>
<g>
	<path d="M64.559,321.728l2.799,2.683c-1.068,1.011-1.74,2.046-2.02,3.104c-0.28,1.063-0.178,2.146,0.304,3.244
		c0.479,1.104,1.176,1.817,2.087,2.148c0.912,0.332,1.867,0.271,2.863-0.154c0.499-0.218,0.928-0.479,1.29-0.786
		c0.36-0.306,0.654-0.707,0.884-1.202c0.229-0.496,0.401-1.121,0.518-1.876c0.115-0.756,0.181-1.682,0.197-2.771
		c0.021-1.196,0.101-2.271,0.235-3.2c0.135-0.938,0.356-1.771,0.662-2.479c0.306-0.707,0.722-1.313,1.244-1.813
		c0.524-0.501,1.192-0.937,2.001-1.281c0.852-0.372,1.719-0.554,2.603-0.543c0.882,0.012,1.725,0.199,2.527,0.563
		c0.804,0.363,1.545,0.896,2.226,1.566c0.68,0.684,1.233,1.508,1.659,2.484c0.698,1.6,0.915,3.131,0.651,4.594
		c-0.265,1.464-0.879,2.789-1.845,3.979l-3.02-2.239c0.622-0.846,1.015-1.646,1.176-2.405c0.161-0.766,0.052-1.581-0.329-2.454
		c-0.208-0.479-0.469-0.877-0.781-1.193c-0.313-0.319-0.655-0.563-1.028-0.736c-0.37-0.174-0.752-0.271-1.143-0.278
		c-0.39-0.019-0.771,0.063-1.146,0.224c-0.353,0.152-0.653,0.358-0.9,0.614c-0.246,0.257-0.45,0.623-0.612,1.104
		c-0.162,0.479-0.277,1.079-0.346,1.806c-0.069,0.723-0.11,1.631-0.127,2.729c-0.018,1.315-0.124,2.468-0.315,3.438
		c-0.194,0.978-0.49,1.825-0.887,2.56c-0.4,0.729-0.919,1.354-1.56,1.866c-0.642,0.518-1.419,0.976-2.334,1.37
		c-1.017,0.44-2.021,0.666-3.011,0.665c-0.99-0.001-1.916-0.195-2.778-0.588c-0.862-0.394-1.637-0.939-2.318-1.657
		c-0.685-0.716-1.243-1.568-1.679-2.565c-0.444-1.021-0.713-2.019-0.804-2.986c-0.091-0.976-0.031-1.915,0.178-2.82
		c0.21-0.903,0.564-1.755,1.062-2.54C63.24,323.074,63.845,322.36,64.559,321.728z"/>
	<path d="M93.175,336.218l8.139,13.355l-3.105,1.893l-3.062-5.021L76.362,357.89l-2-3.272l18.785-11.447l-3.078-5.052
		L93.175,336.218z"/>
	<path d="M113.375,362.775l0.065,0.07l-13.277,26.697l-2.706-3.271l3.067-6.063l-6.99-8.471l-6.595,1.784l-2.641-3.199
		L113.375,362.775z M102.336,376.693l1.813-3.569c0.419-0.846,0.841-1.679,1.267-2.5c0.425-0.82,0.86-1.636,1.309-2.447
		c-0.91,0.251-1.828,0.502-2.753,0.751c-0.926,0.25-1.843,0.5-2.752,0.752l-3.819,1.035L102.336,376.693z"/>
	<path d="M123.53,376.544l11.54,10.557l-2.455,2.688l-4.34-3.97l-14.847,16.229l-2.836-2.593l14.847-16.232l-4.364-3.986
		L123.53,376.544z"/>
	<path d="M154.802,401.449l-2.061,2.997l-8.463-5.815l-3.484,5.071l8.236,5.662l-2.06,2.998l-8.238-5.663l-4.854,7.062l8.463,5.815
		l-2.063,2.999l-11.655-8.013l14.522-21.135L154.802,401.449z"/>
	<path d="M182.834,429.835c0.517-1.738,1.344-3.272,2.483-4.602c1.139-1.329,2.465-2.396,3.976-3.188
		c1.513-0.793,3.15-1.294,4.915-1.503s3.526-0.053,5.286,0.47c1.739,0.521,3.28,1.334,4.627,2.454
		c1.346,1.121,2.43,2.438,3.251,3.935c0.82,1.488,1.343,3.124,1.566,4.881s0.07,3.521-0.458,5.308
		c-0.523,1.76-1.354,3.313-2.497,4.649c-1.143,1.341-2.477,2.41-4.003,3.21c-1.526,0.801-3.175,1.299-4.947,1.493
		c-1.772,0.188-3.538,0.023-5.297-0.49c-1.695-0.503-3.213-1.313-4.551-2.414c-1.339-1.106-2.42-2.403-3.244-3.889
		c-0.824-1.486-1.352-3.114-1.582-4.894C182.128,433.49,182.286,431.682,182.834,429.835z M186.541,430.97
		c-0.407,1.369-0.53,2.698-0.368,3.986c0.161,1.29,0.537,2.472,1.13,3.546c0.591,1.074,1.361,2,2.313,2.779
		c0.95,0.771,2.014,1.342,3.188,1.688c1.281,0.38,2.553,0.497,3.814,0.354c1.26-0.146,2.432-0.508,3.514-1.086
		c1.08-0.577,2.029-1.359,2.843-2.354c0.813-0.979,1.413-2.135,1.8-3.438c0.394-1.325,0.518-2.625,0.376-3.896
		c-0.144-1.271-0.506-2.438-1.085-3.514c-0.582-1.07-1.356-2.004-2.325-2.801c-0.97-0.799-2.085-1.387-3.346-1.758
		c-1.238-0.364-2.482-0.479-3.732-0.324c-1.251,0.146-2.411,0.514-3.481,1.095c-1.072,0.581-2.018,1.354-2.838,2.332
		C187.521,428.561,186.92,429.688,186.541,430.97z"/>
	<path d="M232.935,428.121l-0.486,3.604l-8.861-1.188l-0.822,6.099l8.559,1.153l-0.485,3.604l-8.559-1.146l-1.629,12.097
		l-3.841-0.518l3.421-25.406L232.935,428.121z"/>
	<path d="M281.32,452.018l-4.135-25.301l3.818-0.625l4.145,25.3L281.32,452.018z"/>
	<path d="M302.406,447.68l-7.078-24.639l3.725-1.07l6.074,21.146l7.255-2.084l1.005,3.497L302.406,447.68z"/>
	<path d="M330.557,438.026l-10.603-23.351l3.53-1.603l9.096,20.026l6.873-3.118l1.504,3.313L330.557,438.026z"/>
	<path d="M356.034,424.897L342.538,403.1l3.295-2.04l13.497,21.804L356.034,424.897z"/>
	<path d="M370.781,382.151l2.966-2.495l17.509,20.813l-0.078,0.065l-26.795-2.963l11.557,13.729l-2.967,2.494l-17.619-20.938
		l0.08-0.065l26.815,2.989L370.781,382.151z"/>
	<path d="M389.479,382.031c-1.396-1.152-2.48-2.521-3.269-4.079c-0.78-1.567-1.241-3.201-1.382-4.902s0.036-3.405,0.531-5.112
		c0.494-1.697,1.324-3.269,2.492-4.686c1.146-1.4,2.508-2.502,4.063-3.305c1.559-0.812,3.186-1.291,4.883-1.464
		c1.698-0.181,3.399-0.021,5.104,0.46c1.706,0.479,3.271,1.309,4.71,2.481c1.418,1.167,2.521,2.537,3.309,4.111
		c0.79,1.574,1.255,3.22,1.396,4.938c0.143,1.724-0.041,3.437-0.561,5.144c-0.512,1.709-1.35,3.271-2.517,4.688
		c-1.124,1.365-2.456,2.449-3.997,3.25c-1.541,0.811-3.155,1.293-4.844,1.479c-1.691,0.181-3.396,0.023-5.116-0.445
		C392.57,384.106,390.966,383.256,389.479,382.031z M391.969,379.061c1.104,0.907,2.279,1.538,3.529,1.896
		c1.249,0.354,2.485,0.468,3.704,0.342c1.22-0.125,2.373-0.476,3.461-1.049c1.089-0.571,2.021-1.331,2.798-2.275
		c0.852-1.023,1.455-2.148,1.813-3.376c0.354-1.218,0.479-2.438,0.361-3.651c-0.104-1.229-0.462-2.397-1.055-3.532
		c-0.594-1.134-1.415-2.134-2.465-2.997c-1.067-0.879-2.215-1.5-3.442-1.864c-1.226-0.364-2.438-0.483-3.649-0.37
		c-1.214,0.117-2.374,0.473-3.485,1.053c-1.109,0.584-2.084,1.389-2.919,2.396c-0.822,0.998-1.407,2.104-1.757,3.313
		c-0.352,1.211-0.467,2.422-0.35,3.638c0.109,1.214,0.465,2.388,1.041,3.521C390.132,377.218,390.938,378.21,391.969,379.061z"/>
	<path d="M424.175,357.266L402.237,344l2.006-3.316l21.938,13.271L424.175,357.266z"/>
	<path d="M428.022,338.872l0.098-3.869c1.466,0.112,2.686-0.086,3.659-0.594c0.973-0.507,1.705-1.313,2.188-2.404
		c0.492-1.096,0.563-2.093,0.188-2.99c-0.366-0.896-1.046-1.563-2.038-2.016c-0.497-0.223-0.979-0.365-1.449-0.427
		c-0.469-0.063-0.964-0.011-1.479,0.146c-0.521,0.163-1.104,0.456-1.735,0.887c-0.636,0.422-1.366,0.987-2.189,1.72
		c-0.896,0.788-1.733,1.446-2.521,1.977c-0.785,0.531-1.545,0.922-2.279,1.176c-0.729,0.263-1.464,0.354-2.187,0.313
		c-0.729-0.05-1.487-0.258-2.293-0.62c-0.854-0.381-1.565-0.901-2.15-1.563c-0.586-0.653-1.013-1.404-1.28-2.253
		c-0.269-0.843-0.379-1.734-0.333-2.698c0.049-0.961,0.287-1.933,0.729-2.896c0.714-1.592,1.703-2.779,2.964-3.568
		c1.261-0.784,2.653-1.225,4.183-1.31l0.369,3.744c-1.04,0.104-1.896,0.354-2.564,0.746c-0.68,0.394-1.206,1.021-1.603,1.893
		c-0.214,0.479-0.333,0.938-0.354,1.388c-0.025,0.444,0.021,0.863,0.145,1.26c0.124,0.394,0.313,0.73,0.563,1.031
		c0.252,0.303,0.563,0.529,0.938,0.696c0.354,0.158,0.705,0.243,1.063,0.253c0.354,0.016,0.768-0.085,1.229-0.285
		c0.463-0.197,0.984-0.521,1.563-0.953c0.579-0.438,1.277-1.019,2.104-1.733c0.988-0.873,1.909-1.565,2.76-2.078
		c0.854-0.516,1.688-0.866,2.49-1.063c0.812-0.191,1.618-0.229,2.434-0.104c0.813,0.129,1.675,0.396,2.582,0.809
		c1.018,0.453,1.854,1.053,2.521,1.779c0.666,0.732,1.143,1.556,1.434,2.452c0.291,0.897,0.4,1.846,0.331,2.832
		c-0.066,0.984-0.329,1.979-0.771,2.969c-0.453,1.02-1.02,1.884-1.675,2.604c-0.657,0.722-1.396,1.313-2.209,1.767
		c-0.813,0.455-1.682,0.767-2.599,0.924C429.903,338.947,428.971,338.976,428.022,338.872z"/>
</g>
<path d="M252.327,127.154c-0.187,0.954-0.519,1.762-0.666,2.754c1.177-0.324,2.212-0.79,3.337-1.168
	c1.359-0.025,2.541,0.127,3.754,0.25c0.523-0.254,1.057-0.5,1.501-0.834c-0.813-0.521-1.512-1.158-2.504-1.501
	C256.023,126.904,254.225,127.076,252.327,127.154z"/>
<path d="M256.165,129.824c-0.543,0.016-1.315,0.521-2.003,0.668c-0.686,0.676-1.452,1.271-2.002,2.085
	c0.887,0.923,1.679,1.937,2.669,2.752c2.344,0.093,3.793-0.714,5.256-1.501c-0.246-0.922-0.722-1.615-1.083-2.419
	C258.044,130.893,257.204,130.258,256.165,129.824z"/>
<path d="M249.324,138.916c-0.789,0.156-0.834,1.057-1.083,1.752c0.825-0.258,1.546-0.621,2.251-1
	C250.112,139.407,249.785,139.096,249.324,138.916z"/>
<path d="M245.822,144.172c-0.217,0.311-0.519,0.538-0.668,0.916c0.779,1.002,1.468,2.092,2.252,3.088
	c1.277,0.224,2.205,0.796,3.837,0.667c0.676-0.381,1.396-0.719,1.919-1.252c0.372-0.155,0.646-0.409,0.917-0.667
	c0.315-0.241,0.755-0.357,0.919-0.751c0-0.25,0-0.5,0-0.75c-2.096-0.575-3.268-2.072-6.008-2.003
	C247.986,143.723,246.904,143.946,245.822,144.172z"/>
<path d="M265.506,164.273c0.085,0.167,0.145,0.356,0.336,0.417c0.051,0.089,0.348,0.532,0.333,0.168
	c0.793-2.669-0.769-4.595-2.418-5.589c0,0.724,0,1.445,0,2.169c0.427,0.601,0.722,1.333,1.167,1.918
	C265.036,163.744,265.254,164.025,265.506,164.273z"/>
<path d="M264.757,175.952c-1.33-0.022-2.712-0.099-3.003,0.917c1.039,0.045,1.928,0.241,3.003,0.25
	C264.757,176.73,264.757,176.341,264.757,175.952z"/>
<path fill="#FFFFFF" d="M332.125,290.333c0.65,1.604,1.251,3.388,1.396,5.291c0.138,1.851-0.523,3.394-1.316,4.569
	c-0.46,0.681-0.951,1.367-1.488,1.896C331.357,298.202,331.826,294.273,332.125,290.333z"/>
<path fill="#FFFFFF" d="M330.373,304.085c0.953,0.345,1.877,0.656,2.762,1.062c2.108,0.977,3.934,1.896,3.947,5.032
	c0.016,3.119-1.785,5.527-3.25,7.516c-1.859,2.517-3.768,4.88-5.807,7.271c-0.979,1.148-2.271,2.654-2.563,3.943
	c-0.146,0.629-0.04,1.453,0.077,1.781c0.904,2.563,7.104,3.647,9.753,1.854c1.13-0.77,2.224-3.299,2.938-4.645
	c0.938-1.73,1.605-3.421,2.713-4.807c0.521,0.427,0.951,1.018,1.396,1.555c0.427,0.516,0.953,1.094,1.084,1.772
	c0.417,2.17-1.294,5.271-2.165,7.277c-0.898,2.063-1.697,4.93-1.234,7.813c0.463,2.896,2.019,5.986,1.234,9.284
	c-0.718,3.034-2.971,4.589-5.568,6.114c-1.916,1.125-3.525,2.104-5.496,2.559c-1.67,0.388-3.74,0.57-4.488-0.543
	c-1.729-2.577-2.514-8.026-3.057-10.438c-0.832-3.691-0.545-3.646-2.83-4.188c-1.457-0.348-1.698,2.273-1.688,4.248l0,0
	c0,0,0.188,6.521,0,8.746c-0.188,2.232-0.809,3.396-2.188,4.271c-1.195,0.766-3.094,1.143-5.219,1.332H303.5
	C316.855,347.493,326.352,326.44,330.373,304.085z"/>
<path fill="#FFFFFF" d="M334.76,322.796c-0.164,1.037-0.76,1.908-1.238,2.707c-0.469,0.787-0.896,1.688-1.703,2.17
	C331.277,324.833,333.176,323.767,334.76,322.796z"/>
<path fill="#FFFFFF" d="M315.1,180.132c2.45,3.143,2.866,6.835,4.955,9.907c4.459,6.568,13.646,8.744,18.498,14.554
	c1.551,1.854,3.008,4.453,3.329,7.432c0.304,2.817-0.313,5.526-1.937,6.656c-1.604,1.117-4.307,1.909-6.348,2.71
	c-2.145,0.838-4.041,1.703-6.039,2.941c-1.699,1.055-3.502,2.397-5.269,3.715c-1.788,1.338-3.692,3.102-6.039,3.406
	c-2.021,0.264-3.997-0.153-5.812,0c-3.43,0.291-5.563,1.532-8.438,2.633c0.036-1.919,0.41-3.736,0.695-5.419
	c0.299-1.771,0.604-2.537,1.623-3.561c0.521-0.518,1.098-0.974,1.628-1.394c0.696,1.88,1.175,3.985,1.702,6.038
	c0.453-0.115,0.559-0.691,0.771-1.084c0.347-0.626,0.861-1.224,0.931-2.168c0.121-1.759-0.996-3.476-1.234-5.031
	c2.427-2.431,3.879-5.008,6.813-7.045c2.521-1.749,6.121-2.629,9.674-3.251c3.521-0.613,7.313-0.958,9.289-3.561
	c-2.779-1.463-5.834-3.213-9.752-3.561c-2.443-0.217-5.066,0.275-7.664,0.464c-5.688,0.415-11.373-1.562-15.73-3.107l9.341-25.25
	C310.098,176.157,313.752,178.819,315.1,180.132z"/>
<path fill="#FFFFFF" d="M294.509,224.022c-1.053-0.096-1.813,0.097-2.633,0.232c-0.019-0.654-0.222-1.121-0.312-1.703
	C292.693,222.894,293.863,223.195,294.509,224.022z"/>
<path fill="#FFFFFF" d="M291.411,226.344c-0.837,0.568-2.156,0.915-3.173,1.085c-1.871,0.31-3.846,0.269-6.039,0.154
	c0,0,1.52-2.198,2.478-3.097C287.346,223.395,289.861,225.106,291.411,226.344z"/>
<path fill="#FFFFFF" d="M282.395,231.965c0.271-0.829,1.021-2.373,1.586-2.834c1.78-0.65,4.393-0.512,6.975-0.697
	c1.878-0.134,4.095-0.637,5.959-1.005c0.893-0.177,1.722-0.261,2.092-0.542c0.063-0.015,0.064,0.029,0.076,0.077
	c-1.479,5.391-8.141,8.747-11.852,8.747c-1.631,0-1.801-0.774-2.395-1.312C284.243,233.861,281.729,234.074,282.395,231.965z"/>
<path fill="#FFFFFF" d="M302.018,237.026c-0.977,0.041-2.063-0.113-2.789-0.077c0.113-0.814,0.772-1.084,1.008-1.78
	C300.955,235.613,301.807,236.33,302.018,237.026z"/>
<path fill="#FFFFFF" d="M298.688,238.343c2.498,0.366,3.83,1.767,4.568,4.043c-3.417,0.451-6.854,0.756-9.928,0.76l-0.235,0.001
	c-1.159,0-2.294-0.013-3.405-0.035c0.535-0.781,1.478-1.705,2.422-2.523C293.77,239.154,295.563,237.884,298.688,238.343z"/>
<path fill="#FFFFFF" d="M313.791,143.162c0.579-1.624,1.126-3.158,1.896-4.358c1.125-1.761,2.662-3.095,4.377-4.326
	c0.516,2.07,0.826,4.104,0.539,6.195c-0.193,1.414-0.771,2.938-1.395,4.552c0,0-24.025,64.687-24.586,66.121
	c-0.521,1.341-2.127,2.341-3.752,1.751c-1.655-0.601-2.338-2.243-1.826-3.614C289.561,208.112,313.791,143.162,313.791,143.162z"/>
<path fill="#FFFFFF" d="M284.025,161.604c-0.125,0.775-1.783,0.773-2.002,0.084C282.218,160.898,283.713,160.996,284.025,161.604z"
	/>
<path fill="#FFFFFF" d="M248.158,108.555c1.229-1.051,2.421-2.139,4.087-2.753c1.744-0.509,3.534-0.971,5.254-1.502
	c1.112,0,2.226,0,3.338,0c0.406,0.037,0.718,0.171,1.166,0.167c2.515,1.102,5.653,1.578,7.507,3.336
	c2.393,1.197,4.245,2.932,6.34,4.422c1.229,1.328,1.967,3.149,2.504,5.171c0.771,1.791,1.5,3.616,1.752,5.922
	c-0.053,0.84,0.104,1.885-0.084,2.586c-0.584-0.723-1.037-1.576-1.584-2.335c-0.933,0.682-1.133,2.093-1.418,3.42
	c-0.596-1.963-0.533-4.584-1.502-6.173c-1.229,2.352,0.063,5.904-0.502,8.842c-1.338-0.357-2.201-1.19-3.084-2.002
	c-0.533-2.832-0.748-5.979-0.75-9.342c-0.974-0.021-1.697,0.915-2.502,1.334c-0.676,0.634-1.355,1.263-2.254,1.669
	c-0.025-0.504,0.066-1.124-0.087-1.502c0.593-0.521,1.149-1.077,1.671-1.668c0.053-0.72-0.145-1.189-0.084-1.919
	c-0.421-0.001-1.107,0.447-1.668,0.584c0.27-1.871,0.736-3.544,0.667-5.755c-0.532,0.189-0.835,0.607-1.25,0.918
	c-0.616,1.72-1.31,3.359-2.337,4.67c-0.488-0.428-0.646-1.188-1.001-1.751c-0.252-0.192-0.646-0.244-0.917-0.417
	c-0.34-1.104-0.547-2.345-0.668-3.671c-0.588,0.081-1.055,0.28-1.667,0.334c0.714,2.758-0.104,5.813-1.503,7.257
	c-0.482,0.127-1.172,0.052-1.667,0.167c-0.46,0.182-0.716,0.563-1.252,0.667c-0.277-0.723-0.808-1.193-1.085-1.918
	c0.104-1.012,0.31-1.914,0.334-3.002c-0.247-0.169-0.66-0.176-1.001-0.252c-0.112-1.221-0.359-2.309-1.167-2.835
	c-0.588,0.301-0.789,0.991-1.336,1.334c-0.588-0.077-1.166-0.169-1.832-0.167c-0.461-0.347-0.793-0.822-1.253-1.167
	c-0.767,0.705-1.274,1.674-1.919,2.503c-0.34-0.023-0.565-0.158-0.834-0.251C245.572,111.64,246.83,110.063,248.158,108.555z"/>
<path d="M114.832,237.131H100.62c0.706,9.641,8.382,12.379,14.212,12.379c5.828,0,13.506-2.738,14.207-12.379H114.832z"/>
<rect x="113.202" y="202.762" width="65.393" height="3.849"/>
<rect x="142.567" y="191.955" width="6.661" height="13.22"/>
<polygon points="117.406,239.269 115.629,239.269 113.941,205.407 115.718,205.407 "/>
<polygon points="102.361,239.213 100.736,238.496 113.629,205.463 115.253,206.18 "/>
<polygon points="126.633,238.046 114.367,205.684 116.057,205.131 128.322,237.495 "/>
<path d="M176.809,237.131H162.6c0.703,9.641,8.382,12.379,14.209,12.379c5.83,0,13.507-2.738,14.209-12.379H176.809z"/>
<polygon points="179.385,239.269 177.607,239.269 175.92,205.407 177.697,205.407 "/>
<polygon points="164.338,239.213 162.715,238.496 175.607,205.463 177.231,206.18 "/>
<polygon points="188.61,238.046 176.344,205.684 178.034,205.131 190.301,237.495 "/>
<rect x="113.202" y="202.762" width="65.393" height="3.849"/>
<path d="M147.299,187.038c-0.162-1.372-1.055-2.484-0.774-3.947c0.233-1.225,1.408-2.02,1.935-2.94
	c0.125-0.022,0.133,0.072,0.232,0.077C148.256,182.526,148.342,185.347,147.299,187.038z"/>
<path d="M259.618,192.148c-0.757,1.332-1.399,2.78-2.243,4.025c-0.955-0.364-2.206-0.428-3.02-0.929
	c1.182-1.684,2.543-3.185,4.021-4.568C258.9,191.058,259.277,191.585,259.618,192.148z"/>
<path d="M249.09,263.52c-2.472,0.854-4.907,1.271-7.197,1.781c-2.355,0.527-4.407,1.436-6.426,2.555
	c-3.893,2.155-7.429,4.604-11.069,6.896c-7.312,4.604-14.317,9.438-22.991,12.854c2.413-2.994,5.779-5.076,9.058-7.354
	c3.176-2.211,6.619-4.214,10.063-6.354c3.309-2.056,6.519-4.313,10.063-6.353c2.528-1.448,5.402-2.646,8.67-3.638
	c2.045-0.619,3.949-1.271,6.813-1.085C247.172,262.895,248.498,262.898,249.09,263.52z"/>
<path d="M250.33,265.84c0.068,0.037,0.139,0.068,0.154,0.156c-1.199,1.039-2.905,1.701-4.566,2.322
	c-1.645,0.615-3.307,1.255-4.955,1.854c-3.317,1.223-6.006,3.326-8.902,4.803c1.34-4.787,4.811-7.195,9.986-8.283
	c1.329-0.063,2.653-0.479,4.258-0.612C247.66,265.959,249.178,266.298,250.33,265.84z"/>
<path d="M232.99,277.841c0.715,1.229,0.43,3.402,0.154,4.877c-2.704,7.794-7.682,13.888-12.385,19.896
	c-1.57,2.004-3.389,3.778-5.109,5.646c-3.38,3.685-7.423,6.853-11.225,10.295c-3.768,3.431-7.894,6.955-13.314,8.058
	c-0.004-1.396,0.348-2.438,0.697-3.48c1.798-2.014,4.105-3.231,6.192-4.565c2.182-1.396,4.239-2.863,6.192-4.563
	c1.904-1.654,3.543-3.604,5.265-5.496c5.01-5.521,11.019-10.729,15.481-16.728c1.627-2.188,2.611-4.692,3.639-7.114
	C229.61,282.218,230.932,279.686,232.99,277.841z"/>
<path d="M239.492,284.962c-1.185,3.769-3.695,6.828-5.418,10.451c-3.395,7.131-5.662,15.25-8.748,22.99
	c-0.709,1.771-1.346,3.799-2.09,5.805c-0.73,1.963-1.383,4.059-2.477,5.42c-0.717,0.889-1.789,1.557-2.555,2.479
	c-0.322-0.47-1.113-0.783-1.161-1.396c-0.056-0.715,1.519-2.809,1.858-3.408c1.633-2.879,3.033-5.521,4.257-8.746
	c0.539-1.418,2.244-8.272,2.244-8.272c0.837-4.089,2.829-7.892,4.336-11.771c2.005-5.172,3.827-10.146,7.663-13.471
	c0.056-0.074,0.141-0.119,0.232-0.154C238.334,284.831,238.793,285.016,239.492,284.962z"/>
<path d="M251.412,320.567c0.066-0.021,0.074,0.026,0.079,0.079c0.149,3.808,0.202,8.253,0.541,12.308
	c0.226,2.721,1.104,7.229-0.695,8.826c-1.153,1.02-3.524,1.672-5.188,2.09c-1.937,0.488-3.901,1.021-5.496,1.705
	c-3.498,1.492-5.679,4.264-9.212,5.186c2.934-5.379,8.043-8.396,11.534-13.393c1.761-2.521,3.007-5.322,4.18-8.283
	c1.132-2.857,2.405-5.896,4.104-8.359C251.275,320.642,251.411,320.673,251.412,320.567z"/>
<path fill="#FFFFFF" d="M247.389,332.8c-1.303,2.795-2.781,5.031-4.49,7.277c-0.846,1.104-1.92,2.086-2.555,3.328
	c2.029-0.381,3.752-0.629,5.806-1.238c1.474-0.438,3.413-0.984,3.872-2.09c1.275-3.078-0.077-8.369-0.465-11.535
	c-0.078,0-0.156,0-0.234,0C248.73,329.97,248.035,331.413,247.389,332.8z"/>
<path d="M261.939,332.724c0.078,0,0.156,0,0.229,0c1.824,2.701,1.846,6.836,2.166,11.07c0.186,2.35,0.313,4.924,0,7.197
	c-0.271,1.951-1.176,3.705-2.316,5.266c-1.945,2.646-3.983,4.992-7.662,5.805c1.063-3.053,3.092-5.475,4.875-8.051
	c0.58-0.836,1.313-1.674,1.703-2.555c2.23-5.029-0.892-13.277,1.006-18.502C261.939,332.878,261.939,332.8,261.939,332.724z"/>
<path d="M256.214,346.813c0.072,2.354-0.284,4.721-1.239,6.271c-1.129,1.838-3.281,3.6-5.188,4.721
	c-5.125,3.021-12.135,4.416-18.578,6.191c-2.578,0.713-4.827,1.146-5.806,3.486c4.312,0.641,8.841-0.66,12.231,0.067
	c1.945,0.435,3.779,1.73,5.496,2.479c2.464,1.076,5.98,1.803,9.83,1.547c4.636-0.303,8.337-1.617,11.843-3.096
	c1.65-0.695,3.27-1.688,4.879-2.64c2.146-1.26,3.928-2.646,7.275-2.313c3.039,0.297,6.318,1.313,9.212,2.09
	c0.494,0.133,0.988,0.254,1.472,0.387c0.449,0.125,0.967,0.24,1.314,0.543c-1.739,0.203-3.264,0.742-5.264,0.938
	c-1.285,0.11-2.74,0.006-4.188,0c-2.063-0.021-4.063-0.121-5.42,0.61c-1.396,0.767-2.563,1.938-3.938,2.861
	c-1.854,1.242-4.181,2.166-7.047,2.4c-3.103,0.256-6.434,0.385-9.682,0.613c-1.458,0.104-3.442,0.555-5.187,0.543
	c-3.365-0.015-5.364-1.104-7.587-2.316c-1.458-0.797-3.13-2.229-5.496-2.244c-2.052-0.014-4.261,0.979-6.425,1.238
	c-1.011,0.119-2.313,0.188-3.329,0c-1.202-0.23-2.404-1.603-3.173-2.479c-0.932-1.071-1.686-2.146-2.4-3.252
	c2.963-3.553,8.453-4.484,13.469-6.039c5.387-1.666,11.289-3.76,15.482-6.811c2.125-1.546,3.623-3.563,5.582-5.498
	C255.033,346.96,256.161,346.813,256.214,346.813z"/>
<path d="M466.769,304.921l25.723-16.619c1.271-8.008,2.145-16.012,2.606-23.989l-24.048,19.662
	C469.968,290.96,468.543,297.948,466.769,304.921z"/>
<path d="M472.611,271.188l22.883-20.351c0.033-8.108-0.325-16.151-1.084-24.106l-20.767,23.103
	C473.643,256.902,473.301,264.025,472.611,271.188z"/>
<path d="M473.236,236.958l19.509-23.605c-1.205-8.018-2.787-15.912-4.751-23.658l-16.995,26.001
	C472.075,222.683,472.825,229.775,473.236,236.958z"/>
<path d="M468.629,203.034l15.677-26.307c-2.415-7.74-5.183-15.3-8.307-22.655l-12.826,28.291
	C465.303,189.103,467.127,195.999,468.629,203.034z"/>
<path d="M458.897,170.21l11.478-28.391c-3.568-7.281-7.458-14.33-11.668-21.122l-8.357,29.917
	C453.483,156.951,456.339,163.487,458.897,170.21z"/>
<path d="M444.27,139.257l7.011-29.81c-4.64-6.651-9.56-13.023-14.755-19.094l-3.693,30.843
	C436.895,126.98,440.715,133.004,444.27,139.257z"/>
<path d="M425.088,110.9l2.376-30.53c-5.599-5.865-11.434-11.412-17.496-16.618l1.06,31.045
	C415.925,99.893,420.62,105.263,425.088,110.9z"/>
<path d="M401.803,85.803l-2.313-30.535c-6.43-4.942-13.042-9.533-19.828-13.752l5.783,30.52
	C391.066,76.324,396.526,80.914,401.803,85.803z"/>
<path d="M374.959,64.555l-6.945-29.825c-7.106-3.902-14.346-7.43-21.695-10.564l10.375,29.28
	C362.9,56.826,368.998,60.529,374.959,64.555z"/>
<path d="M345.188,47.654L333.77,19.239c-7.619-2.771-15.312-5.153-23.055-7.129l14.725,27.353
	C332.09,41.855,338.682,44.584,345.188,47.654z"/>
<path d="M313.184,35.495L297.563,9.156C289.607,7.58,281.645,6.4,273.689,5.63l18.727,24.785
	C299.354,31.764,306.285,33.455,313.184,35.495z"/>
<path d="M279.698,28.364L260.239,4.719c-8.101-0.344-16.152-0.294-24.13,0.159L258.4,26.514
	C265.463,26.788,272.57,27.401,279.698,28.364z"/>
<path d="M245.518,26.428L222.677,6.03c-8.058,0.896-16.007,2.175-23.823,3.84l25.332,17.979
	C231.208,27.043,238.326,26.564,245.518,26.428z"/>
<path d="M211.442,29.732L185.756,13.06c-7.827,2.116-15.488,4.593-22.958,7.432l27.78,13.902
	C197.395,32.524,204.355,30.965,211.442,29.732z"/>
<path d="M178.27,38.2l-27.93-12.556c-7.413,3.287-14.605,6.904-21.555,10.849l29.576,9.499C164.813,43.104,171.455,40.5,178.27,38.2
	z"/>
<path d="M146.779,51.631l-29.519-8.145c-6.824,4.38-13.38,9.053-19.646,14.012l30.679,4.873
	C134.229,58.532,140.395,54.945,146.779,51.631z"/>
<path d="M117.708,69.713L87.291,66.17c-6.075,5.37-11.841,10.989-17.276,16.847l31.063,0.132
	C106.358,78.448,111.904,73.962,117.708,69.713z"/>
<path d="M91.738,92.02l-30.601,1.141c-5.184,6.235-10.025,12.667-14.502,19.287l30.719-4.611
	C81.854,102.386,86.65,97.105,91.738,92.02z"/>
<path d="M69.477,118.03l-30.068,5.799c-4.171,6.953-7.974,14.049-11.388,21.274l29.655-9.247
	C61.292,129.783,65.226,123.833,69.477,118.03z"/>
<path d="M51.448,147.134l-28.831,10.321c-3.061,7.508-5.735,15.102-8.007,22.763l27.896-13.665
	C45.152,159.998,48.132,153.517,51.448,147.134z"/>
<path d="M38.072,178.648l-26.918,14.601c-1.879,7.888-3.363,15.8-4.438,23.719L32.2,199.205
	C33.814,192.323,35.77,185.463,38.072,178.648z"/>
<path d="M29.664,211.835L5.291,230.374c-0.653,8.083-0.912,16.129-0.766,24.119l22.474-21.445
	C27.543,226,28.429,218.921,29.664,211.835z"/>
<path d="M26.42,245.917L5.163,267.958c0.588,8.088,1.561,16.079,2.925,23.953l18.937-24.625
	C26.487,260.238,26.281,253.107,26.42,245.917z"/>
<path d="M28.417,280.094l-17.644,25.028c1.816,7.903,3.997,15.652,6.547,23.226l14.956-27.227
	C30.669,294.236,29.377,287.223,28.417,280.094z"/>
<path d="M35.608,313.565l-13.617,27.429c3.001,7.533,6.34,14.856,10.016,21.954l10.624-29.19
	C39.992,327.199,37.645,320.464,35.608,313.565z"/>
<path d="M47.824,345.547l-9.27,29.188c4.116,6.984,8.534,13.716,13.25,20.168l6.043-30.473
	C54.238,358.352,50.89,352.054,47.824,345.547z"/>
<path d="M64.778,375.289l-4.706,30.26c5.134,6.276,10.527,12.252,16.173,17.909l1.321-31.036
	C73.072,386.965,68.802,381.252,64.778,375.289z"/>
<path d="M86.074,402.095l-0.032,30.623c6.032,5.42,12.274,10.502,18.717,15.231l-3.432-30.875
	C96.053,412.367,90.961,407.373,86.074,402.095z"/>
<path d="M111.212,425.335l4.643,30.271c6.789,4.436,13.734,8.505,20.823,12.193l-8.105-29.989
	C122.642,433.964,116.848,429.806,111.212,425.335z"/>
<path d="M139.604,444.466l9.209,29.206c7.387,3.348,14.871,6.311,22.441,8.874l-12.588-28.398
	C152.217,451.249,145.856,448.024,139.604,444.466z"/>
<path d="M170.583,459.039l13.56,27.458c7.811,2.181,15.66,3.964,23.533,5.344L190.9,465.695
	C184.083,463.817,177.305,461.602,170.583,459.039z"/>
<path d="M203.423,468.712l17.592,25.066c8.052,0.963,16.081,1.525,24.072,1.688l-20.57-23.276
	C217.495,471.374,210.458,470.219,203.423,468.712z"/>
<path d="M237.355,473.259l21.211,22.087c8.104-0.275,16.127-0.943,24.049-2.005l-23.883-19.865
	C251.669,473.741,244.537,473.674,237.355,473.259z"/>
<path d="M271.583,472.572l24.336,18.59c7.968-1.511,15.793-3.396,23.46-5.651l-26.636-15.985
	C285.805,470.864,278.745,471.887,271.583,472.572z"/>
<path d="M305.307,466.669l26.889,14.657c7.644-2.709,15.09-5.769,22.322-9.166l-28.766-11.734
	C319.1,462.811,312.279,464.898,305.307,466.669z"/>
<path d="M337.73,455.688l28.813,10.383c7.141-3.846,14.031-8.002,20.661-12.468l-30.22-7.204
	C350.773,449.769,344.354,452.873,337.73,455.688z"/>
<path d="M368.102,439.885l30.061,5.861c6.469-4.889,12.645-10.05,18.516-15.474l-30.965-2.511
	C380.088,432.044,374.216,436.093,368.102,439.885z"/>
<path d="M395.703,419.631l30.602,1.205c5.646-5.819,10.962-11.862,15.938-18.119l-30.985,2.247
	C406.353,410.053,401.167,414.95,395.703,419.631z"/>
<path d="M419.89,395.401l30.429-3.48c4.69-6.613,9.021-13.396,12.982-20.339l-30.277,6.95
	C428.952,384.31,424.575,389.941,419.89,395.401z"/>
<path d="M440.094,367.764l29.539-8.084c3.628-7.252,6.872-14.617,9.729-22.083l-28.863,11.491
	C447.357,355.419,443.892,361.652,440.094,367.764z"/>
<path d="M455.843,337.366l27.959-12.499c2.479-7.721,4.562-15.494,6.242-23.309l-26.771,15.763
	C461.137,324.057,458.663,330.746,455.843,337.366z"/>
<circle cx="241.818" cy="85.803" r="4.125"/>
<circle cx="230.125" cy="86.805" r="4.125"/>
<circle cx="218.533" cy="88.639" r="4.125"/>
<circle cx="207.102" cy="91.295" r="4.125"/>
<circle cx="195.89" cy="94.76" r="4.125"/>
<circle cx="184.953" cy="99.015" r="4.125"/>
<circle cx="174.347" cy="104.041" r="4.125"/>
<circle cx="164.127" cy="109.81" r="4.125"/>
<circle cx="154.345" cy="116.293" r="4.125"/>
<circle cx="145.051" cy="123.458" r="4.125"/>
<circle cx="136.291" cy="131.267" r="4.125"/>
<circle cx="128.11" cy="139.681" r="4.125"/>
<circle cx="120.551" cy="148.658" r="4.125"/>
<circle cx="113.651" cy="158.151" r="4.125"/>
<circle cx="107.446" cy="168.112" r="4.125"/>
<circle cx="101.967" cy="178.491" r="4.125"/>
<circle cx="97.243" cy="189.234" r="4.125"/>
<circle cx="93.297" cy="200.286" r="4.126"/>
<circle cx="90.15" cy="211.592" r="4.126"/>
<circle cx="87.818" cy="223.093" r="4.126"/>
<circle cx="86.311" cy="234.731" r="4.126"/>
<circle cx="85.639" cy="246.448" r="4.126"/>
<circle cx="85.804" cy="258.183" r="4.126"/>
<circle cx="86.807" cy="269.875" r="4.126"/>
<circle cx="88.64" cy="281.467" r="4.126"/>
<circle cx="91.296" cy="292.897" r="4.126"/>
<circle cx="94.761" cy="304.11" r="4.126"/>
<circle cx="99.017" cy="315.047" r="4.126"/>
<circle cx="104.042" cy="325.652" r="4.126"/>
<circle cx="109.811" cy="335.872" r="4.126"/>
<path d="M112.824,347.885c-1.232-1.917-0.677-4.468,1.238-5.701c1.918-1.23,4.471-0.675,5.703,1.239
	c1.23,1.918,0.675,4.472-1.241,5.7C116.605,350.356,114.056,349.802,112.824,347.885z"/>
<circle cx="123.459" cy="354.949" r="4.126"/>
<circle cx="131.268" cy="363.708" r="4.126"/>
<path d="M136.766,374.808c-1.611-1.609-1.611-4.223-0.002-5.835c1.612-1.61,4.226-1.607,5.836-0.002
	c1.61,1.613,1.609,4.228-0.001,5.834C140.986,376.418,138.377,376.418,136.766,374.808z"/>
<path d="M145.958,382.567c-1.722-1.492-1.908-4.099-0.418-5.819c1.493-1.724,4.1-1.907,5.821-0.419
	c1.721,1.495,1.907,4.101,0.415,5.819C150.282,383.873,147.681,384.059,145.958,382.567z"/>
<path d="M155.68,389.652c-1.824-1.366-2.195-3.95-0.833-5.775c1.367-1.825,3.954-2.194,5.776-0.833
	c1.823,1.369,2.194,3.954,0.829,5.775C160.087,390.646,157.505,391.017,155.68,389.652z"/>
<path d="M165.883,396.025c-1.917-1.232-2.472-3.783-1.243-5.701c1.233-1.918,3.787-2.473,5.702-1.243
	c1.917,1.235,2.471,3.787,1.239,5.701C170.35,396.701,167.801,397.256,165.883,396.025z"/>
<path d="M176.515,401.654c-2-1.095-2.735-3.6-1.646-5.6c1.094-2.002,3.601-2.733,5.599-1.646c2,1.096,2.735,3.602,1.643,5.599
	C181.018,402.01,178.515,402.745,176.515,401.654z"/>
<path d="M187.521,406.511c-2.073-0.948-2.985-3.394-2.042-5.467c0.948-2.074,3.397-2.985,5.467-2.042
	c2.073,0.95,2.985,3.396,2.038,5.467C192.038,406.544,189.594,407.456,187.521,406.511z"/>
<path d="M198.846,410.569c-2.136-0.798-3.22-3.172-2.427-5.31c0.798-2.137,3.175-3.22,5.308-2.427
	c2.135,0.8,3.219,3.175,2.423,5.308C203.354,410.28,200.981,411.364,198.846,410.569z"/>
<path d="M210.432,413.81c-2.188-0.644-3.438-2.935-2.799-5.119c0.643-2.188,2.938-3.438,5.121-2.801
	c2.187,0.646,3.438,2.938,2.795,5.121C214.907,413.199,212.618,414.45,210.432,413.81z"/>
<path d="M222.219,416.215c-2.228-0.483-3.639-2.682-3.158-4.908c0.485-2.229,2.685-3.639,4.908-3.155
	c2.227,0.486,3.638,2.684,3.153,4.907C226.639,415.287,224.445,416.698,222.219,416.215z"/>
<path d="M234.147,417.773c-2.257-0.325-3.821-2.415-3.5-4.673c0.325-2.257,2.418-3.818,4.67-3.497
	c2.256,0.326,3.82,2.415,3.496,4.672C238.49,416.532,236.402,418.097,234.147,417.773z"/>
<path d="M246.156,418.477c-2.274-0.161-3.983-2.136-3.824-4.407c0.163-2.274,2.139-3.982,4.409-3.823
	c2.274,0.166,3.983,2.139,3.819,4.411C250.399,416.929,248.428,418.639,246.156,418.477z"/>
<path d="M258.186,418.321c-2.278,0-4.125-1.848-4.129-4.125c0-2.28,1.852-4.125,4.125-4.128c2.279,0.003,4.125,1.849,4.125,4.127
	C262.307,416.475,260.463,418.321,258.186,418.321z"/>
<path d="M270.172,417.309c-2.273,0.162-4.246-1.547-4.412-3.818c-0.162-2.274,1.551-4.246,3.82-4.411
	c2.273-0.16,4.246,1.55,4.409,3.822C274.15,415.173,272.443,417.146,270.172,417.309z"/>
<path d="M282.057,415.443c-2.257,0.322-4.346-1.24-4.674-3.496c-0.324-2.257,1.244-4.348,3.496-4.672
	c2.256-0.322,4.346,1.24,4.67,3.498C285.873,413.029,284.313,415.119,282.057,415.443z"/>
<path d="M293.777,412.735c-2.229,0.482-4.424-0.93-4.911-3.154c-0.484-2.229,0.931-4.423,3.153-4.909
	c2.228-0.48,4.424,0.929,4.906,3.156C297.412,410.055,296.004,412.251,293.777,412.735z"/>
<path d="M305.275,409.197c-2.188,0.643-4.479-0.609-5.125-2.796c-0.643-2.188,0.613-4.479,2.797-5.121
	c2.187-0.643,4.479,0.608,5.119,2.798C308.71,406.265,307.462,408.556,305.275,409.197z"/>
<path d="M316.491,404.849c-2.136,0.799-4.509-0.289-5.31-2.424c-0.799-2.135,0.291-4.51,2.422-5.308
	c2.137-0.795,4.512,0.29,5.308,2.426C319.708,401.678,318.627,404.053,316.491,404.849z"/>
<path d="M327.368,399.711c-2.073,0.947-4.519,0.033-5.47-2.039c-0.946-2.072-0.029-4.52,2.039-5.467
	c2.074-0.945,4.521-0.032,5.467,2.041C330.352,396.318,329.441,398.765,327.368,399.711z"/>
<path d="M337.852,393.811c-2,1.095-4.504,0.355-5.601-1.645c-1.093-1.999-0.353-4.506,1.644-5.598
	c2.002-1.093,4.506-0.354,5.6,1.646C340.585,390.214,339.854,392.719,337.852,393.811z"/>
<path d="M347.887,387.177c-1.918,1.232-4.467,0.676-5.703-1.239c-1.23-1.915-0.673-4.471,1.239-5.7
	c1.919-1.23,4.47-0.677,5.701,1.241C350.355,383.395,349.805,385.945,347.887,387.177z"/>
<path d="M357.424,379.844c-1.824,1.366-4.406,0.993-5.777-0.83c-1.364-1.821-0.988-4.41,0.83-5.772
	c1.825-1.364,4.41-0.992,5.774,0.832C359.617,375.896,359.249,378.479,357.424,379.844z"/>
<path d="M366.413,371.85c-1.724,1.493-4.325,1.307-5.822-0.416c-1.491-1.721-1.302-4.326,0.415-5.816
	c1.725-1.491,4.328-1.307,5.82,0.417C368.318,367.755,368.137,370.357,366.413,371.85z"/>
<path d="M374.811,363.234c-1.611,1.61-4.223,1.608-5.838,0c-1.611-1.609-1.605-4.226-0.002-5.833c1.614-1.61,4.225-1.61,5.836,0.001
	C376.418,359.013,376.422,361.623,374.811,363.234z"/>
<path d="M382.568,354.042c-1.492,1.724-4.096,1.907-5.821,0.417c-1.722-1.491-1.904-4.099-0.418-5.818
	c1.496-1.722,4.101-1.906,5.821-0.415C383.873,349.718,384.063,352.32,382.568,354.042z"/>
<path d="M389.654,344.319c-1.367,1.824-3.949,2.192-5.778,0.831c-1.823-1.364-2.19-3.952-0.832-5.773
	c1.37-1.824,3.953-2.195,5.776-0.829C390.646,339.913,391.021,342.496,389.654,344.319z"/>
<path d="M396.027,334.116c-1.233,1.919-3.783,2.471-5.704,1.241c-1.916-1.23-2.468-3.786-1.242-5.699
	c1.235-1.918,3.786-2.474,5.703-1.239C396.701,329.65,397.26,332.2,396.027,334.116z"/>
<path d="M401.656,323.484c-1.094,2.002-3.6,2.732-5.602,1.646c-1.998-1.091-2.731-3.601-1.646-5.597
	c1.097-2.001,3.601-2.735,5.601-1.645C402.01,318.981,402.749,321.485,401.656,323.484z"/>
<path d="M406.512,312.479c-0.945,2.074-3.393,2.983-5.47,2.041c-2.07-0.944-2.981-3.396-2.04-5.466
	c0.951-2.072,3.396-2.985,5.469-2.038C406.544,307.962,407.46,310.406,406.512,312.479z"/>
<path d="M410.57,301.154c-0.797,2.136-3.171,3.218-5.313,2.426c-2.133-0.796-3.216-3.176-2.425-5.307
	c0.801-2.139,3.175-3.222,5.31-2.424C410.28,296.646,411.368,299.02,410.57,301.154z"/>
<path d="M413.811,289.568c-0.643,2.188-2.934,3.437-5.122,2.799c-2.187-0.643-3.437-2.938-2.799-5.12
	c0.646-2.188,2.938-3.438,5.123-2.795C413.199,285.094,414.454,287.383,413.811,289.568z"/>
<path d="M416.216,277.782c-0.482,2.227-2.681,3.637-4.911,3.155c-2.225-0.483-3.636-2.686-3.153-4.906
	c0.487-2.229,2.684-3.639,4.909-3.153C415.287,273.361,416.702,275.557,416.216,277.782z"/>
<path d="M417.774,265.854c-0.324,2.256-2.414,3.819-4.676,3.5c-2.253-0.324-3.815-2.42-3.497-4.67
	c0.329-2.26,2.417-3.82,4.676-3.496C416.532,261.512,418.101,263.6,417.774,265.854z"/>
<path d="M418.478,253.846c-0.16,2.271-2.135,3.98-4.41,3.822c-2.271-0.163-3.98-2.141-3.821-4.409
	c0.167-2.276,2.139-3.982,4.413-3.819C416.929,249.602,418.643,251.572,418.478,253.846z"/>
<path d="M418.322,241.816c0.001,2.278-1.847,4.124-4.128,4.128c-2.276-0.001-4.123-1.852-4.126-4.125
	c0.004-2.283,1.85-4.125,4.129-4.125C416.475,237.694,418.325,239.538,418.322,241.816z"/>
<path d="M417.31,229.829c0.163,2.272-1.546,4.245-3.821,4.413c-2.271,0.162-4.244-1.553-4.409-3.821
	c-0.159-2.277,1.551-4.246,3.824-4.408C415.173,225.85,417.15,227.556,417.31,229.829z"/>
<path d="M415.444,217.944c0.323,2.255-1.239,4.344-3.499,4.674c-2.253,0.323-4.346-1.246-4.67-3.496
	c-0.321-2.26,1.241-4.346,3.5-4.67C413.029,214.128,415.123,215.689,415.444,217.944z"/>
<path d="M412.736,206.223c0.483,2.226-0.929,4.422-3.157,4.912c-2.224,0.483-4.421-0.933-4.907-3.154
	c-0.479-2.231,0.93-4.424,3.158-4.908C410.055,202.589,412.255,203.997,412.736,206.223z"/>
<path d="M409.198,194.725c0.644,2.186-0.608,4.477-2.798,5.125c-2.186,0.641-4.479-0.615-5.12-2.796
	c-0.642-2.191,0.609-4.479,2.8-5.12C406.265,191.292,408.56,192.539,409.198,194.725z"/>
<path d="M404.85,183.509c0.8,2.135-0.286,4.509-2.426,5.311c-2.132,0.795-4.509-0.294-5.306-2.423
	c-0.795-2.14,0.29-4.511,2.427-5.307C401.679,180.293,404.057,181.374,404.85,183.509z"/>
<path d="M399.712,172.631c0.948,2.072,0.034,4.519-2.041,5.471c-2.069,0.945-4.519,0.028-5.465-2.039
	c-0.944-2.078-0.032-4.52,2.042-5.466C396.318,169.65,398.769,170.558,399.712,172.631z"/>
<path d="M393.813,162.148c1.092,2,0.355,4.505-1.646,5.603c-1.997,1.09-4.506,0.351-5.599-1.644
	c-1.09-2.005-0.354-4.506,1.646-5.598C390.215,159.417,392.723,160.147,393.813,162.148z"/>
<path d="M387.178,152.112c1.232,1.917,0.678,4.468-1.24,5.706c-1.914,1.229-4.471,0.671-5.701-1.24
	c-1.229-1.922-0.674-4.47,1.244-5.702C383.396,149.645,385.949,150.195,387.178,152.112z"/>
<path d="M379.846,142.576c1.365,1.824,0.993,4.409-0.832,5.779c-1.82,1.363-4.41,0.989-5.771-0.83
	c-1.365-1.83-0.992-4.41,0.833-5.776C375.896,140.384,378.482,140.75,379.846,142.576z"/>
<path d="M371.852,133.586c1.491,1.722,1.307,4.327-0.418,5.824c-1.72,1.49-4.328,1.301-5.815-0.416
	c-1.493-1.728-1.306-4.328,0.418-5.821C367.756,131.682,370.361,131.863,371.852,133.586z"/>
<path d="M363.234,125.19c1.611,1.611,1.611,4.222,0,5.838c-1.608,1.609-4.226,1.606-5.832,0c-1.612-1.617-1.609-4.224,0.002-5.835
	C359.016,123.583,361.627,123.577,363.234,125.19z"/>
<path d="M354.043,117.43c1.723,1.492,1.908,4.097,0.416,5.824c-1.49,1.72-4.1,1.904-5.816,0.417
	c-1.725-1.498-1.906-4.098-0.414-5.821C349.721,116.128,352.323,115.936,354.043,117.43z"/>
<path d="M344.32,110.346c1.824,1.365,2.195,3.95,0.83,5.779c-1.363,1.821-3.952,2.191-5.772,0.83
	c-1.826-1.371-2.192-3.952-0.828-5.776C339.915,109.355,342.499,108.978,344.32,110.346z"/>
<path d="M334.117,103.973c1.918,1.231,2.472,3.784,1.24,5.706c-1.229,1.914-3.787,2.468-5.698,1.24
	c-1.921-1.237-2.47-3.785-1.238-5.703C329.652,103.299,332.203,102.739,334.117,103.973z"/>
<path d="M323.484,98.344c2.002,1.092,2.734,3.598,1.646,5.603c-1.091,1.997-3.603,2.732-5.597,1.643
	c-2.003-1.097-2.733-3.599-1.643-5.6C318.984,97.99,321.488,97.25,323.484,98.344z"/>
<path d="M312.479,93.488c2.073,0.946,2.984,3.394,2.041,5.471c-0.944,2.07-3.396,2.982-5.465,2.038
	c-2.076-0.951-2.984-3.395-2.037-5.468C307.965,93.456,310.409,92.539,312.479,93.488z"/>
<path d="M301.154,89.429c2.136,0.796,3.22,3.172,2.427,5.312c-0.796,2.132-3.177,3.216-5.308,2.422
	c-2.14-0.8-3.217-3.173-2.422-5.308C296.648,89.72,299.021,88.63,301.154,89.429z"/>
<path d="M289.57,86.189c2.186,0.642,3.437,2.935,2.798,5.125c-0.642,2.183-2.938,3.435-5.12,2.795
	c-2.189-0.646-3.436-2.936-2.794-5.122C285.098,86.8,287.386,85.544,289.57,86.189z"/>
<path d="M277.783,83.783c2.226,0.484,3.638,2.682,3.156,4.913c-0.484,2.223-2.687,3.635-4.907,3.153
	c-2.231-0.487-3.638-2.683-3.152-4.91C273.366,84.712,275.559,83.296,277.783,83.783z"/>
<path d="M265.854,82.225c2.256,0.324,3.82,2.416,3.5,4.675c-0.326,2.252-2.42,3.818-4.67,3.495c-2.262-0.327-3.82-2.417-3.494-4.672
	C261.516,83.467,263.602,81.898,265.854,82.225z"/>
<path d="M253.846,81.521c2.271,0.163,3.982,2.137,3.823,4.413c-0.164,2.27-2.142,3.981-4.409,3.82
	c-2.277-0.165-3.981-2.138-3.818-4.412C249.605,83.07,251.573,81.356,253.846,81.521z"/>
<g>
	<g>
		<polygon fill="#1B1ADA" points="272.32,262.754 275.855,260.175 279.397,262.742 278.038,258.584 281.572,256.005 
			277.197,256.013 275.843,251.855 274.498,256.019 270.121,256.027 273.665,258.59 		"/>
		<polygon fill="#1B1ADA" points="277.221,269.122 275.862,264.967 274.518,269.127 270.144,269.133 273.688,271.702 
			272.343,275.861 275.88,273.286 279.42,275.85 278.062,271.693 281.593,269.112 		"/>
		<polygon fill="#1B1ADA" points="294.57,269.092 293.213,264.937 291.868,269.099 287.492,269.106 291.036,271.67 289.693,275.831 
			293.228,273.256 296.77,275.818 295.41,271.663 298.944,269.084 		"/>
		<polygon fill="#1B1ADA" points="316.293,269.056 311.921,269.062 310.561,264.906 309.216,269.067 304.844,269.076 
			308.384,271.642 307.043,275.801 310.577,273.226 314.119,275.793 312.76,271.633 		"/>
		<polygon fill="#1B1ADA" points="307.02,262.689 310.554,260.115 314.096,262.679 312.738,258.523 316.272,255.948 
			311.898,255.954 310.537,251.797 309.195,255.958 304.821,255.965 308.364,258.529 		"/>
		<polygon fill="#1B1ADA" points="289.672,262.724 293.203,260.145 296.746,262.709 295.388,258.554 298.924,255.979 
			294.549,255.984 293.188,251.827 291.846,255.988 287.471,255.997 291.014,258.563 		"/>
	</g>
</g>
<path fill="#FFFFFF" d="M287.637,214.188c-0.312,0.987,0.369,2.196,1.825,2.723c1.437,0.52,2.778-0.092,3.22-1.027L287.637,214.188z
	"/>
<path fill="#FFFFFF" d="M307.82,212.952c-0.432-1.183-3.885-1.927-5.34-1.47c-1.479,2.055-1.418,5.651-2.246,8.359l-1.156,0.016
	c-0.648-1.16-0.891-2.719-0.891-4.281l-1.047,0.016c-0.375,1.01-0.572,2.034-0.572,2.034c0,0.733,0,1.034,0.438,1.552
	c1.01,1.367,2.087,2.289,2.938,1.719c0.854-0.573,0.584-0.729,1.563-0.771s1.624,0.271,2.291-0.417s3.463-4.18,3.71-4.82
	C307.773,214.208,307.99,213.411,307.82,212.952z"/>
<path fill="#FFFFFF" d="M315.376,278.705c-2.442,0.427-4.938,0.813-7.44,1.141l0.437,72.484c2.687-3.93,5.151-8.116,7.384-12.503
	L315.376,278.705z M270.878,279.789l0.349,55.541c2.242,4.056,4.74,7.924,7.49,11.594l-0.406-66.553
	C275.816,280.215,273.338,280.021,270.878,279.789z M294.2,280.861h-0.441c-1.47,0-2.936-0.014-4.397-0.039l0.457,78.578
	c1.983,1.885,4.051,3.698,6.203,5.436l1.246,1.006l0.019-0.019l-0.479-85.015C295.927,280.838,295.057,280.859,294.2,280.861z"/>
</svg>
